<mxfile host="drawio.corp.amazon.com" modified="2025-07-12T17:00:13.019Z" agent="Mozilla/5.0 (Macintosh; Intel Mac OS X 10_15_7) AppleWebKit/537.36 (KHTML, like Gecko) Chrome/138.0.0.0 Safari/537.36" etag="jrwxH-k6vF6TusageuNX" version="21.7.4" type="device">
  <diagram name="Page-1" id="YA9CtBtfoQ4xi97v5XIt">
    <mxGraphModel dx="1195" dy="654" grid="1" gridSize="10" guides="1" tooltips="1" connect="1" arrows="1" fold="1" page="1" pageScale="1" pageWidth="1100" pageHeight="850" math="0" shadow="0">
      <root>
        <mxCell id="0" />
        <mxCell id="1" parent="0" />
        <mxCell id="KliGwBsKS5aDSYIdk3Gj-6" value="&lt;b&gt;us-east-1&lt;/b&gt;" style="points=[[0,0],[0.25,0],[0.5,0],[0.75,0],[1,0],[1,0.25],[1,0.5],[1,0.75],[1,1],[0.75,1],[0.5,1],[0.25,1],[0,1],[0,0.75],[0,0.5],[0,0.25]];outlineConnect=0;gradientColor=none;html=1;whiteSpace=wrap;fontSize=12;fontStyle=0;container=1;pointerEvents=0;collapsible=0;recursiveResize=0;shape=mxgraph.aws4.group;grIcon=mxgraph.aws4.group_region;strokeColor=#147EBA;fillColor=none;verticalAlign=top;align=left;spacingLeft=30;fontColor=#147EBA;dashed=1;" parent="1" vertex="1">
          <mxGeometry x="160" y="10" width="800" height="310" as="geometry" />
        </mxCell>
        <mxCell id="gm67zMA869F3ZMpq1-CG-8" style="edgeStyle=orthogonalEdgeStyle;rounded=0;orthogonalLoop=1;jettySize=auto;html=1;" edge="1" parent="KliGwBsKS5aDSYIdk3Gj-6" source="KliGwBsKS5aDSYIdk3Gj-17" target="KliGwBsKS5aDSYIdk3Gj-3">
          <mxGeometry relative="1" as="geometry" />
        </mxCell>
        <mxCell id="KliGwBsKS5aDSYIdk3Gj-17" value="AWS WAF" style="shape=image;verticalLabelPosition=bottom;labelBackgroundColor=default;verticalAlign=top;aspect=fixed;imageAspect=0;image=data:image/png,iVBORw0KGgoAAAANSUhEUgAAAEAAAABACAIAAAAlC+aJAAAAAXNSR0IArs4c6QAAAERlWElmTU0AKgAAAAgAAYdpAAQAAAABAAAAGgAAAAAAA6ABAAMAAAABAAEAAKACAAQAAAABAAAAQKADAAQAAAABAAAAQAAAAABGUUKwAAAKbklEQVRoBe1ZCXRU1Rme92ZfksmeDBE0AQELRVOCAUHEEhRKghSwQZCighYobSyeVkVcKqUcsdhWRbT2gFC7itEqUlpBpIomCoalAhUBDWQjC5lMZp950+/OjTcz772ZeZOY47En9+RM/nvvf//lLv/2uNPFZaqvc+O/zsIT2QcU+KpPcOAEBk6gjzswcIX6uIF9Xv7/fgKcTpt5z13qdGvvdqrww9fx17u1ClclOIGMH99unV9u27wuOR14XpOTZbjyCioEAHRVfAJeCiUWoXHxYyF1htW2+Ze6wiG+0583Ln8geNEuWt/T5TjDVaNM44uMJVfpRg7l1OqeqTAUCgZ9J0+7aw67qms9hz9WhUIiBNbltJqQP8C68YEECmBxQh14k8FSVmqtKNMOye9mFgoFWtsDjRcMY8gheI6e0Npy1VnpKo6jCP66evtfd3bt3CO4PN1LvvintqbYnvmF4/U99r8ounuJFQDlODpYZlyfefcSIAAt0NDsfOs9V02tp/bjkNeHEfoAzowrB8zpdYaiUaaSIvPUiRpbDkaC7fa2X/++a/fbgGmj0uuGF/o/O39+YWXIR4jEb4oUAAlZHbIfqkwpL8Ws58gJ+4tVzn/XqISoixGpQI8cPGeeXGJdNIeej+O1N1vWPklYhPeeSP95fcMP7g+2XexZEhtSqgBhIHkPkCD3sfvannqha9e+2CxizqTM/HbGysXNP1vvOXYySvplq4Ot7TGXRU8koQAWSnXgNJpQoOfBQQ7TtVfjQPznGqIZyffo8l5LT0SqHDRcnrbcaMjtdb51wDSxWDf0UtM1Y517DwgudyRi+p23ZFbeYa0oN0+7NtjShqscOSsDC0JfpAfB5BTAAqkOIY+XSRZoarVMv4436OE3LDdMNhaP8Z2pC7bEuw9ATimbKnS5GpK5OYxjcgpkP7Ay0NwaON8kOgemg2B3BOqbLKWTiKo+n/YSW+pNN3B6rfvQUVXU82YCqGCvnHvedezah1eLF5yxbKHrnQ96phNBSXhH7FPK7BvzNq6BT4UFbFy+GrtLTHu3ce9mhXvl+/QzdDq2VwXbO1Q8l3bbzbmP3Y/rHkuYoN1BbA7P5z3xIFjgccfClI4rVYC3mDMq78D69k3bVIIAgOoANQCgi6iJUe/avR+wJjuzdf0mOmieMiFrzY8YgjwgCO1Pb8MUGPFmkzyOZFSpAimzStVpqZ7a/1DhKB2ITqXHsy44UDVk51brrd/FRnqPfwIE7RCb8+1q9o6xr/B6EgGiBuDUwALvJ2XWtKiJ2B1lCvBc6vdI+Qi3QpYUbyEbpsnNggnKXffTkNePLqclZ+LcX41fhFL4zVy1lDPoAcRpHX8gLFIrynD34qCxKUUKGIuv1ObnwbS7DhxkKyMBhGg0OBM6u8ylk7If+QlmBSexsPQEvCc+dR88ijOknjtyrQgGC/+5RrAzjh0jmpLtKlLANOFbWIzXGSuEDHZ0+s83Aad1w2bB4dQOtgH2na3DrxA2srzJ6Kjaja5l2iT9qOFQI+abFkLOve8C0xhmCiB+U6QAImRQcVfXxqFFnT/syYUHf0XRPAePAuCNBvwKnQ5ESvDZ+tEjcx5dhSAq9/HVsTIEcp4qlSnMlJKK85tYAZgX3bDLwBtRcRxCgpsExrxehztg/9PfvSdOuT88ghGYdvzCe8DeB5paEOvTqNs0aZx1wU2yBD1HjiN50A0rALIsQuRgYgXwNGHsiQRxkww4VNDFCeAXQXL991fRWJ/mZQiwMY4MgfLGgQBIWzxPVkQwCja34hFrcrMpfpxfBQrkkdg90NDNW5YWrrhu5DC8EGY0KZp+5FD9FcMQL3mO/RcjnKY7TevY9jKeNd608WpyOaXN39CMQY0tsQIJzoil5MZxY+SD+zDz1Ipy5GW4PHjNkdKk3jwTXUT8NDXhU1PQFbqcSLhg7KEbLpjIsjGOwLQ9sw6/NB8CINsSn4DssshBpFr0NttffCVyHM4b8RxSnM4vkkMunNe3/XYLcmt/HYm3tYPI8falJTgBaI9Ttm1aixfZuGKNLCdjSREug7++CZY+EsEyYwrcFpJMTNHxCw8/ocnJdO6vQTcUTupD0Rkcxul+Y+9x5uBILUEkWRGcQAFg05dHs1jRYtrVf+NyABBUNEvDAcer/2LjuPf4o11qXkM+4rOljd5+WC3plGgk8RWC/cF2wSBIKyWUFo0jcLMjScP46ocXQD73oWOR4wxGSgQY5Qk2wgD4OGJ/UNpo/jIUwPtD2Ax7p//mCMYjEoDrRVcUP2ovzYefggSxKgu6yy/DKt+ps5GkKAxGYIfwKdb5RC5JfALApq4Rdz1yJYN9nxAhkGGyEQDaSwbhl5yeXFNnZehGFEI+ulaEQm2r+wPiBxM2ZQqEgwjL1Imy5FzVH8FnwVvj2fUgqAllktDItbSFs3Ehu958R5RSU1zKKH7kwqgqUgC1KuyltmAwDYrYYgqE3B77H4kBzXn0np7iXDjpgYMTIaNrnjLeumB22Ly+Jp01ji8CIzxfMJXOSkcUKYAUrPOlN7A4bdFcKQmMdGz5GxJZXAzbs+tME8hdQlyNX95KPBdr2PWMHy7O3YAwjkNm5z15mk0xIO3WOYA7d+yieR8bjwUoUwAUX/knHitOAMmhlBZCveZ717veO4Q0Mu/JR2xPr6WJizafxNVonE6HjGzQCxvTbpuHyAour2P7yxhHoQl/YRTyY77+GrAAI7Bjg/GBJApbqXNnZN23Am6hbvadstsD82e9ZVba0vnk5sBPhUu52OlwEamYT7VAFETdrRuec+4jToOWyQB0J9Y8P+TV5+FwkEl3hpOH+KLT2STKKjhxXcHg9qe24oIiqsF9EMengoCQ27FzLyJTVORppAmTgveNcAO2uGPrS3DGtGYB9rzBgGMh6k0sRraEt+Q9fgrKt2/arkR0ipPECTCitJYmeH1NKx+SNSNEOIsZaRdsa6ClDd4XyY3v7DlGgQEI6WzPhr8/nKlrRGErzvcHtiYaSFqBqEqg4hpyNNOonrTeGjWdqKP0EVM6MtIrqx3EFIPnaH0JFwx3KelvWTjqmKQlE1Lpka8M3vGcaXKJBFfRgPm6EizXjygkOiwjdb5e6KD0EUulh4yZlUuMY0dbbpysHz0C5gVfaESCIztJv2vBxef/LBpH0Tfr3uXpS+aDLF6tc9/7qK7GqreK1oq6it4AbEj+lseRPYm/naDgNfc7GSsW4cmCLswLyrSumsOkMhcO9KOSOJ5H4I2vgPjEBLsEfASwMDidVf9g33V68R4UKQBm6UvnW6ZPkf3yQ8pVc6Zb581UZ2cAEw3b6W+8AI9BIzzi4Gw5WlsOK8uh4G7f8QYqRaIUFGuT1UGpAiDNGQ0w1URAuQYvhlIUSmAw/CSWlms4QHdNLT6zut//KPK7jgg3KR2SUEDEJk4X1xpbrsnLzvvNw0BruvvnOA24v1hOQ0qK6YCPrW0bfydFYCP9ogCjHvUG2KgyADqk3V4Bxx8/relfBZSJ2iesJPxAn/j02+IBBfptaxUSHjgBhRvVb2gDJ9BvW6uQ8MAJKNyofkP7H+c63mGEFKgTAAAAAElFTkSuQmCC;fontStyle=1" parent="KliGwBsKS5aDSYIdk3Gj-6" vertex="1">
          <mxGeometry x="171" y="190" width="75" height="75" as="geometry" />
        </mxCell>
        <mxCell id="gm67zMA869F3ZMpq1-CG-17" style="edgeStyle=orthogonalEdgeStyle;rounded=0;orthogonalLoop=1;jettySize=auto;html=1;entryX=0.5;entryY=0;entryDx=0;entryDy=0;" edge="1" parent="KliGwBsKS5aDSYIdk3Gj-6" source="KliGwBsKS5aDSYIdk3Gj-2" target="KliGwBsKS5aDSYIdk3Gj-17">
          <mxGeometry relative="1" as="geometry" />
        </mxCell>
        <mxCell id="gm67zMA869F3ZMpq1-CG-18" style="edgeStyle=orthogonalEdgeStyle;rounded=0;orthogonalLoop=1;jettySize=auto;html=1;entryX=0.507;entryY=-0.032;entryDx=0;entryDy=0;entryPerimeter=0;" edge="1" parent="KliGwBsKS5aDSYIdk3Gj-6" source="KliGwBsKS5aDSYIdk3Gj-2" target="gm67zMA869F3ZMpq1-CG-13">
          <mxGeometry relative="1" as="geometry" />
        </mxCell>
        <mxCell id="KliGwBsKS5aDSYIdk3Gj-2" value="&lt;b&gt;AWS Amplify&lt;/b&gt;" style="sketch=0;points=[[0,0,0],[0.25,0,0],[0.5,0,0],[0.75,0,0],[1,0,0],[0,1,0],[0.25,1,0],[0.5,1,0],[0.75,1,0],[1,1,0],[0,0.25,0],[0,0.5,0],[0,0.75,0],[1,0.25,0],[1,0.5,0],[1,0.75,0]];outlineConnect=0;fontColor=#232F3E;fillColor=#DD344C;strokeColor=#ffffff;dashed=0;verticalLabelPosition=bottom;verticalAlign=top;align=center;html=1;fontSize=12;fontStyle=0;aspect=fixed;shape=mxgraph.aws4.resourceIcon;resIcon=mxgraph.aws4.amplify;" parent="KliGwBsKS5aDSYIdk3Gj-6" vertex="1">
          <mxGeometry x="111" y="51" width="78" height="78" as="geometry" />
        </mxCell>
        <mxCell id="gm67zMA869F3ZMpq1-CG-9" style="edgeStyle=orthogonalEdgeStyle;rounded=0;orthogonalLoop=1;jettySize=auto;html=1;entryX=0;entryY=0.5;entryDx=0;entryDy=0;entryPerimeter=0;" edge="1" parent="KliGwBsKS5aDSYIdk3Gj-6" source="KliGwBsKS5aDSYIdk3Gj-3" target="gm67zMA869F3ZMpq1-CG-2">
          <mxGeometry relative="1" as="geometry" />
        </mxCell>
        <mxCell id="KliGwBsKS5aDSYIdk3Gj-3" value="&lt;b&gt;Amazon S3&lt;/b&gt;" style="sketch=0;points=[[0,0,0],[0.25,0,0],[0.5,0,0],[0.75,0,0],[1,0,0],[0,1,0],[0.25,1,0],[0.5,1,0],[0.75,1,0],[1,1,0],[0,0.25,0],[0,0.5,0],[0,0.75,0],[1,0.25,0],[1,0.5,0],[1,0.75,0]];outlineConnect=0;fontColor=#232F3E;fillColor=#7AA116;strokeColor=#ffffff;dashed=0;verticalLabelPosition=bottom;verticalAlign=top;align=center;html=1;fontSize=12;fontStyle=0;aspect=fixed;shape=mxgraph.aws4.resourceIcon;resIcon=mxgraph.aws4.s3;" parent="KliGwBsKS5aDSYIdk3Gj-6" vertex="1">
          <mxGeometry x="380" y="190" width="75" height="75" as="geometry" />
        </mxCell>
        <mxCell id="gm67zMA869F3ZMpq1-CG-7" style="edgeStyle=orthogonalEdgeStyle;rounded=0;orthogonalLoop=1;jettySize=auto;html=1;entryX=0.5;entryY=0;entryDx=0;entryDy=0;entryPerimeter=0;" edge="1" parent="KliGwBsKS5aDSYIdk3Gj-6" source="KliGwBsKS5aDSYIdk3Gj-5" target="KliGwBsKS5aDSYIdk3Gj-3">
          <mxGeometry relative="1" as="geometry" />
        </mxCell>
        <mxCell id="KliGwBsKS5aDSYIdk3Gj-5" value="Amazon Q Business Embedded" style="shape=image;verticalLabelPosition=bottom;labelBackgroundColor=default;verticalAlign=top;aspect=fixed;imageAspect=0;image=data:image/png,iVBORw0KGgoAAAANSUhEUgAAAJQAAACUCAYAAAB1PADUAAAAAXNSR0IArs4c6QAAaNhJREFUGBnswXnQrvdZGObrvn/P877fcr6zn6PtaLHkDVnCYGEb2RgMExyWFJqEbAMlkwU3S0lCpimFNNSTNlMSIGQ6IUmBMWSgLG4mLA5bUsAkAYyNLQtZsrxI1i5LR8vRWb/vfZ/nd/eco2TaJvlDZvV2XXzGZ3zGZ3zGZ3xaCJ/xX3T1bf/V1u6wf8hhWf4/5t0zuVhvTE/81g+d8xn/mfAZz7vtzeMV2/3EdPjEK8eD17wyD175ktw8cE0stjaiZY01V04XVrk6f2o+/8z9F049cdf6uZPvrdOn7j/5jn9y1mdcFj7NHX39n9+J41d92ZGrX/xfb19x3Vf0fVcc3Fvstxp2rIdNPQeZaRGzzei2YmWYd9XqjDj/jL2TD/3b849/9CfOPPiRn37oF//p/T7NhU9TB77gfzy0d8W1X7Pzii/4xtXGoVsXG0s9my7IZlwsjONIdOmimrWaLJPlGIZMo7X9I/3Cc8499ejHTj/4oR94+r47v/+Jn/nu+32aCp9u3vjG4ejGG79icf0r//t2za1veHLjSnvjNkEbWDZaELqY14ZWFi0NLYSS1Q0ttNZEFH22aN2+cbYxnbZ+9MP3PfPB9/3jJz/y4e8/+Y5/ctanmfBp5PCXfcvty+s+789uXPGS/7Y2Djhry/lxxyoWIsslmSmTlkQwZJfJgJZklCEYWpCht5CNwZ7Rrp2hLC6ccvq+e//vZz5wx/c88LbVT/OW7tNE+DRw+I3feGLj6s9+cxx/yd+ZD15vvTikIqw1cy7MkS6pbCIQZHPZMBDBGGQwJBm0oBrrYFgyIvtkcxF2WtnYO2t5+gnnPnrXjz5+z3u+4yM//e13+DQQPoUdfu037s9rb/mTdfTFf61d+bJbY/uoVTW780ylaKlLFS6rCD2pdFlhGMggkyFJtKQFldTQjWNaItaMfbaR3WIxW7a1oe9aPfP4mWc+dOf//sRv/cb3nfql73nQp7DwKektefUf9iUbJ175N+erbv3ys8sr7C32WaNmSskMmfTeyXBJDypDDwqFaEQwNhJDEkFLJD1nYwsbkZbBslDIWbUuh7Bv0W3vnXbh0Q998Km7fuPvn/ute3/8sfd873mfgppPMVe88VtvOfTam/5eu+H13+2Kz33J7uK4XRv6mui0ZGihUOWiQieoKCGFiwKB6gLhoiAiUEK4pGXqU9FnGUEGSWZq2dScek9TW9o8fPzooRPXffXy6is+r1358pOn7/ql+3yKCZ8iDr/2G0/su/Kmr9134pV/K4/cdOR0O+rMvNQzFQLR0JiDjrmI7Oh6IEKPVC7KILq5SmRpQkRpGTJTJikMA1FkzLJ1TSC1SENjOdAG5l7M5+1fcmCYXHjiQc/df+8/e/z9v/l/nPzZ73ifTxHhk93t37R5/MiL/tjBa1/+bbn/xEvXwxGr3GcdS6W5JIIIum6VZVYqmp7hkgqXVdADSUcE3SUlIogulcyUjVHIXlqSY4iBGKgkgmwllVaTzZa2lk3Ms77e1Vo5PHarR+/afepDd/69j37w/d979l//syd9kms+iV31+r/1hqte8vp/uHnNK78lD734yG47ZteOOZaaFGhVUseslNJVlIomImRQRaCKKMLzwvNCKFQPhKoQQmKMUBXmYip6EKgoc1+LCC2bKHb3JvNcctw0taXz67K9f99w7NrrvuToVVf+oX71yy88d8cv/ZZPYuGT0OHXfsvNR6591TccuOrWv3FueciFYdtsg2gKkZ4XJSJMNZmjM7BOpmKOQUSKoIqqcklroYKeTMW6igyRLosigioUi4FxQWv0IGrSMowtZNKDiNAyZDJgTMYgssTQDbGyL/eMu886df89P/34ne/6R4++7e/+sk9C4ZPINa/5q0eWV77y67aOvvwt477rD66XR53NpSkaRYTnBRFUlogym81BZTNnWldXQkRYr2eLRdMWVLGemaZZb0Smtggdc9HRO4LWaI1eqJIxW7RmMYYWparrQbYmE40hGIIhWAaV9JFSWt+1r00O5ppnH/Pk3Xf806fuvuMfPvIL3/0Rn0TCJ4Grb3vz1vLwzV+5efjmb944+uLb2r4jdlu5MIfJpjkaZpfFgFBBjy5yrYKKpUJ15k4kGhXszUy96xlyDMNIBKLUtDbPM7pYDKqllW6qGaFtbrJmLBZJizKbGcOwbKZOCxYYg9ZKRpeZIkqL2cZydMm83rUc0v4N8vwzppMPP/HIHb/6nfN9D37/A+/4R6d8Emg+wb3oDX/7Nfuv+fzvOnji9d+2PHLz1avhkHN9sNe7ORBNInWpRIWq9LzQKxBkikLR0JBoicYwhMUYWhKdnCc5r+1bNEvdMlgMqWXoikgxjuazk+ohhSERoYQuTeWyQBYZszDrUeZ0UYmpy55KqByspHU0tdi02H9g300v/aw3jTv7vnQ8fOOzz9zzK/f4BBc+Qd3wxrfcEBsv+sZDV73qb8bmlfpyvz2Dta5niAgVRUwuiRqocEmP1DEH66QnMRQxUbNWo6Gajt3o5iwVKTNElXm90qddUStW52XSWlNtsKpmlaNhc5+2PZiCKahOn1cyB2NLGRTaQORkbF1kyUyVIZMmLHrTogxDGAYqKZfMxpxtxdr+nC0vnPLUh+/8qfve82//tyd+6jt/wyeo8Anm2Bv/yr7t8dqvOXD8tf/z9uFbbpjaMReKvZkpSjSGIVSnOi0molNNRVPBHFQwY0If0ErZFVEyB/pCFTGir/R5l+mcRd+zfyucOH7QVUf321qEUvocLsycvlBOnjrn8adO+djZlfHoVVZtobcyKb2aiDQkY0OUbDOtxNBFhMwUUQZhUYPFSCbzTOmGIQ0LMunVWZ9zYFEOD2ueeMhT99zx7U/e+d5/9tFf+p4HfYIJn0Bu/OJv/8qd45/9P20cednnW1xpVZtWPXREEOGyPjMji2UgypSsk3kIhY4KolzWo/ToDGFuaQ76NNsQ+rmnHBzOesWN215/yzGvfHG6+hBbI5uNjgmrYnfiqWe5/yHufeKcX3j/Iz62WjrXd/Stg2psdmfmubSktZCJgUiyrUXOhmCosjCICBEhMy0WYbFgntldT7b2DbJ17FrMK0ei7J9mZx548IHH3//e7zj9wK+99YF3/OCuTxDhE8ANr/vWzzl49GX/w/bRm/+M7evt1o5VLc0VMokqKbRGYd3pwdCItcvmxpRMAz2odFkWVeh01ICRlXOsz1qef9qrX361N73uoNe9guMj+7DoZO4xz7TRZDRhQqFwqnjvY/z8b57zK+972Mm9pXnnuPWwba+IETORZJINbdayi2AwW7ZBRglNa0lHMI6MG6znSYxdGxh6t5hmOznYV6PN3VNOP/jeX3747l/9zg/8yFt+1ieA8Afo6tu++brDV73qa7cO3vgtmzvHd9Ztw6ovVS5FjOapazHIClHMSQ/WydRcVFqREabOHOTA3Fj1tdmstWYYRusLZRD2b3HmzCl7qyddf2ztj37JNd7wyoNuOMgGlisW/oOGWqshrKW1MAmJxIwVTuHXP8BP/PuPetcDu84sr7TeOuTCjMaiMbqoEOQSC3qxiDJWN0ZqEVqgEY1oJXKW0Y3BIGQMMkMES+VwnpPPPebkh+76wYfueud3P/LT3/lb/gCFPwAnbv+mzWObN3zNvsOveMu0feONsXFcGzbs9W7uJSJEoEoTQiLNEaZkTqakB9Vpjd5Zz/SYVUxiGZabC8+dOmd7c9simM6d1c8/4YoDfOHrbvKmN3DzcbZQneXMmOjoCIz0mE1mpEtSIvWZ3Ym25AIem/iF9/D2X3/EPc8wbR3Tl0vnV2VjETLZ3S3VQttkNbOxZNAtMUYYA62LhqS10JQxGDJVhGoYaFiu1/bHnn1xQX/m4QtP3Pvu7/ro+37zHz/5i9//hD8A4ffRbbe9eTyzcc0fOnjg5m85uP+z3rCxc60zuWkVoz7TOzqZRFI5qZj1nMyRRFOarinMwRqVJNpALLq99a699Sxj6cDOwvkzTGefdGA45dU3b/ljX3bCbS9hwGJibGtNExFS+P/qvYsoIdCZOgpJNtXSjHlmSvaCj57i7e++4F+96wEPnN+x2rrCuTboGDfDMJAz0dhNsrGBRWcRsyHRkCEyZdKSDIYkomvZDZmyUvZuHGfbw8pi9YzTD33oA0+8/93f+cFr937QW97S/T5qfp/cePs33bo8+Mr/5cqrbv+uw4duvb4NJ1xYb1pXmudQMwMasohApjmYs1R05aIKqckiimGginkuc611k+qzZS7tbCycf/qM/tzDPufGhT/3x6/3p798v5ddwTY2sUxahAwCU5/0oKT1PBlaE5FU0INIAtHZ2yNo2QzBMJfNDAc3uOnq0a0vPab2wulTT1nvnrOxvWVeT/b2ukGznqhGeV4EKpFCKiFQmANB1SzNWs2iU72xCHvVnJ2x3HbgyquPHTp+zVefODN+vv03PHLq3n//gN8n4ffYi177rVcc2Lz+L+4cvPWbd3ZetJPDEXMfraubehct9SAiRIYK1jNTUo05qaByQglEb7LSJXtzWe4LU+Ps3nmVS8uhqd3JfO5JNx2ffOnrrvOlr+PaYyww6Mqs99kiN/S50LUWLimXpO4/0em9a9llFjp9QhBLFc2MCYEVnlrxa/dOfupX73PHIxecWV5pd3HQhWhiOaLrrVRrMgksgwUGDEm0ok2ydS0YhIXUIpWUS3KgB/PMEJN94+xwm3jyUSfvvuP7H7nr3d/90M991z1+j4XfI1ff9uatQ1vXffnRQ6/8to2NF3/2xsYNemzYnVh1YsBQWqeiu2ROJmGSBNXoqES4qLskXVSpB8OCcxf2xKLs7N9w4dwFzz75mGuObHrtrVf5E18eXnKC7SBrzxizEGYpjWpOmQgKszILE1aet+5EMAQDqog+2W6T7CuiEZtWc+rJEERnmibDYnAWD53hF+/s/uWv3+cjp0o/cMS5GFWM5mE056APRNCCZTAWY5LRZZtkhojQMg2REoslq9UaabHR5MBcKDZzcihnh2NleuKhpz/63n/3Dz54zx1vPfOO733K75Hwe+DW2//OFx06cPO37uy/6U2LxfV6HjT1hVVnHdSARMxi6iLCnEzCHBhSCpd1/69gTiqYkynZnWYHdppccf6Zx+xrp9128xFv+uJjXvM5LAcWSJOmGwz6XPSmNZTLes12e2cx2sWDZ/jox7jnPi7ssdG4/io++0auO8QGRiujVJ0eSaRLCg2BmrseaS85jbtO8vO/ed477nrEA88x77/aqm2olqqVGlIlmWHAWGVRYQgyicDAPBDBVmMwS2EQxhbGkY65Mwz09QX7cs+OC9aP3XfnA3f+2nfc833f/CMov8vC76Kbbvmb1x4/+tJvPnrs5X91Y+OEqQ5arbfJDROmoBox0IN5XhuUaGkSJqXnIBo6Nc9GKSpUMAe9MbVuSuboxsXgwumThgvPuPn6HX/ki6/2Ra/l8A4D0ixM6EJICyrpKASCC8XUOItf/yA/+cv3uuPeZz19ZlsbjzDNlnXGZ79ow5e94SZveBVX7zBi4XlVRBBIVJ9kuKw0FyKcwxm88z5+4V3P+rf3Pun8sGM1blkPS6uxmVsjGSMthAVGRBCN3ugD2VgUozIEg9KEIYgh5MA6GDZowTidd7h2bZx/2sm77/zpx+96z9+99ye//T1+FzW/S275vL//pddd88Z/fuzY6/5I5rXW86aKDRWjOVMggkQUbe4aMohM1SfzPBtztEB0Yk593S3GVMrefEGMazl2c9Fq7eyjH3LVvjO+5iuu9xe/9ojPewUHlyyLtqZFSilrpq9EuqgxBck62U3OJnc+zI/8/Dn/589+yF2PlNXGdWLfNWLrkM39B+TGEY987Iz33vuoB5/ZUcvRNceJogJBIlxSMkLvk8gQUXqVMdI2XnyYV79004n9h81nn3Xy5DNWfaGP+0xSVgphEVQxFX1gbswu6gxFdkroEWZBBhEiZpTW0jyVdQ+VozkX5nHD9tHjL7v6ZS//OtfcfPrku372XX6XNL8LXvMF3/71J678wh/at/HyE/P6sOr7VC7Mkhj9RxEEWnWJENbTJLPJNkgpK63XpXeGIWxtpd0VFWFza8Se3QvPiOm0zTrpq77oJb7+j1/tD3/RwuEtRt1gT4sUwmXrYCSymedZ7022dKFzvnH/s/zsr0z++U98wL+/4ynn8yrj/uusc1ssmt01qxVtTIudg9ax30efOOtd73vYyZOTfQf3OXCQqegzY9IUZpHheaFFasgpLLEz8pJrwktvPGhzechzT5909sx5GaM06BPr3Ukbm2Fk6kwzLRmTPtNcVJ6XlOdluqyUXqELFVSmKRbmHMzDMB6/8sRX7Lz01UdyHt5x+pF7Jr9Dze/Q6173PX/l+KHbv+/g9ksXNe2Y50EbUrbU1yEjRBGBmIRJ6qIGKuQwUKmvgx4yZhVrMuWYzl5gSnonZnJvpe0+6XNfsvDn/8RLfPkXNi+9jjHQGSIw6BX+o0pEM0cz50LPtBc8M/Pz7+StP/4xP/kLH3B6ddjBK16mctuF9WwYU/UyJK2FuVh3pgi9LayGwXs+8rD3P3jO2d0jDu3n0BbLIM1q74yQaMQoBEImES7LzsFNXn1TevUth9hNJx99zN4Kw9Jy32DqzKsuKmTRJ3p1Q3aDtaxOhHJJqKALFalX6EUJl3UyqBhlNPu3tx06cOi1sX3gxvngkZ8786H3rP0ONL8Dr3nNd/+Z66/+4rdu5PX6ekefFmgyXBaICoUookroaFQKVCeKLCJDtq4r64n1nNoQtjYYrZ179j5X7FzwtX/spf7cnzrolhs5uMHQy7wOi4EMAhkIJFOnN9bC+WIvuON+vu9HPuhtP/+IJ88etHnwJsP2Ibtr9jrZUgtqWmnZZaS5uooQY8pFE8stfbnf02fW3vdbH3HfAxdsbx926DBDS23cFDGKaC6ZZ+Z5JokoKTQsg7E4tMHnvnzhpdcdsT4Xnnz8IdNqVyotB4UQspHJ3NfCjK4EQS9KuKS7JJQQgULRi3DJ4Ny5XYvlpmNXX3vr3oXp8OO/9hM/43eg+W167Wv/wZtOHP+CH13k9aPpoIhRZkj0uataiyClS7IIiQFJEYiZIalgMqls5GBozcYYamI+/6TNvM+XfuFhf/0vXef229g/MMy0IJVxKC1KVghkEJhqTWtW2MV9T/AD/9dZb/0X93jgqW21c71127GqZgrmoAqdqFmLmV4uaa3JFqbiwnqyu7eys7FlGLbk1iGPPLfrV+542AcebcZ9Ww4fpQUZRCcbLVNG6H3PNO0ZWooKGWHEvomXHOFVN4yu3dl2+umnrdeT3SnEYkMMYXfVzcWwGPUKs9Qj9QolVRAIF5XLGgKFKiooZC71tnR+4uiVV71658Qt02Pv/Kl/57ep+W245Za/fsUVR27/0aMHbr162tuSli6ZJxRtoGWoKlGNQrksPC9cVIzpsl5dj5LZTFO32t0z750S64e8/lWHfMPX3+Crv3zH0f20mTHIQEcLaq2mlWghdPPUVUs9mj089gxv/6XuB972Ue96/3P28iq1vMKqmmpNJHNRRSatEUHLVOWyiNR76X02jM3Wxmh1vosY7NWgL3asxwPue/RZd3/4lEdPbtp/eLCxSRsIrFazYUgZtDZYTWuthajSdEOsLYrDi/Sy6wef/YrDsg544rEHPXfqpBYM48Lc2V2XaoM5Upd6Bh1FKHTVu6xQFS4J/0FQRRu4sA6rSvt29juws/Elu5vH7zz1/nfc67eh+W24+WV/7i3HD9z21a0flbEgwjyFPs8yGcaUEWruUnNZkaggUImgF1VEhsWYzMy7Z2wvn3TNFU/7hq//LH/8j2y46VrGTlYZhiKCZK4uW6AJSRZKN5gzPLfLr/4mP/jjp/zcLz/sqXM7lvuvk4stPVI6J12QwZBNRZhmeidbaJn6XPrUJRZtsMiUczfvzloMpplFC+MizTlaty3Prpc+8NAp7/vwyun1lsPH2FqyGFIq0ZuppxpGszTo1MzqPJm00Xri2Ca33chn33jUcp48+eTjzp3flYuDhq3BhZkpwoQqlyVadVmz7EUxByUUAk0JYXfiwsy+nXRhr1tsNPu2Fyd2zw//6uxD7zvv49R8nG699W9/4Ykjt3/foX2f5fzpIJveu9bCuEiZzNOsFy0HikKgEIkgUFFiCJFFzPp613zhKccOnvOVb7rBX3nzFW59Wdi3wYhMMgKFiSjZmt6JRKbVuqnWXOjhfffy1h99zL/4Vw+675G0/9iLLPbts7sKhcQQa0MVFapKCNlSBH2mz6Vls2iDKExd6zRpkU1PxoHVivUekbSxqVzIjR3PnJnd9YGH3fuRU2J5yNErGDL0oiU9XDaE5w0DSZeGDCOG4pr9fO7NO05cfaXzZybPnDxp9/xsGBdKykC5LNCEVDJCBV3TK1ySyFqrwpDaQBXz3NUQNhbjdfPe2SeefPfP/bqPU/Nxuu2Wb/ruYzuf+1m7pweLYUuXRKIra6VkDLJSFVW0Rscckwiylbl32iwXa3M/49xzj9tqz3jTG6/0l//CUV/0OrYGBrRAUUWEi0JViUgESQ+mYJ3c9zhve/vK9//Y+33gYdbjlYb9V9ibWa8ZgjHWxj4Z+kL2payF0JDKRUEEkUEV5aKQUkithxkda2TSklbkzNjJXsZl6uOGB0/u+s27P+bhJzZt7F84dJghaGjFeg5aUzHomvVcItMaEYzYxA2Hec1nbbv6wCFnn3zU008+bmMxSqOppwoU1cNlVeYqFYNKlItmaUaZDaqw7sYxrHqXQ7OzXFxzdtr3b87f/xvP+Dg0H4dXvvKbXnPF/td/11beqK8GLVO5KIgooQuhNIEoBKt1Ny5D75O5TzYWo9BF7jp77gHT9IhbX37UX/hvbvJHv2p09CA1MSyIQCDoiKAXc00yBx17E+uZp07zC7/M9//wB/z6HU+LzRus2n6x2M9AoGEohpiloEZRSYSK0IMIzwvCJSE8LwSFoAdTUkliKFpnQCqUOUJvCzXutzsvPfDoSe//4DOePbtl3+HBzjYRVDIXfeqGljLTpEulzAZlkDZmDo68+Epuu+WIhS1Pf+wxZ5875cD+Q6ae9iY2lqzWSdArzZEK3SWFWaFi0JDzSijratqwMEYe3z377Ieffc/PvMvHofk4fNZNf+Ibr9i+/QuG+aDoKYMKAhElEBqCooIKsoW+7hbDYBwGZ06ftrNvw1Mn73XTjXzdn/48f/br93vRi8igDWRDIZhnolHB3kQORIYzu2uymYr33Mn3vfWUn/y5B51eHbM4cKXz82wYm8gQc2qd7ERQFaoGl8zJnPQkgkIgikC4JAh6hB5MQW/0JIKhGHs3WAlrPTrRrNYppOWQtjY3aOnJM7vueuScd9591m7ut/8QB5YsOhstpEkEJVFCN6Ahehhm9idHFrz6pUs3XXtM7YX7779fz6WtnQ2nzpRxI8xSj1SooFwSegaRVBgC8wURoVuIHOS4MMa8sXt69RMXHr1rzwvUvEC33fjmA8ePf+7/emjjlivnvYWWKAqhRJQQaALhoiCzzH2Wmo0Fe3uTxdg999wDbr/9en/1L13r1lewvYVArmWUCMoskmzhko5o7E6shRybD3+EH/qxk37oh+/z4OML+4/cYNzaspoGkSl6iI65qU74DzLM6EEPCj26MhMhKgSyiEIg6MGcoYIeCFox1KyZhElE6RKNTC1ZT+ytV3JcGvcdsZv7PXt2dvc9D3jwkT2bG/tdeSWC9TqJ0IKqSQuaRpXMEoGajJU2Ilx5kJe8eEs47JHHnnD6zMpia9ucoRdzEC4Kl5VQkUrSGTJkTQg9RnOnx2BhffDsQ/f87NkPv/MxL1DzAl114ituueLA53zbVrta3x0NQSgRs4iZClEhpcuii+j0SWYaM+3uMubaavW4z3vNcW9+845rjrGxJIPZnoxUSjcTs1TmPosYrNasi2w8/jg//rZdP/zjH/HB+7qpHbVz8AqCs2foE1tDk3OTc9M6GUgkczK3iUiVXbWViInooohqElkuC1RQ0VWEEgJZRJWIlcpZoQyiRqR5ZkYNGJtqaTURc9heLq1XZ508dc6v3vW09z+6bd/x0aGDLINF0aaS0USkkipKRKAxz/pqZWMc7Bu49aYm2yEf+vCH9VhYWZorzS4qohO960JHd0kIJWpW0VQ1U6dX2KzV5urk/e959s5/8x4vUPMC3Xj1137lsf0v/6pFbas5jAZ6iCiELBeFqnRZBEpVN7SBHqpfMM0nXX/j4K/9jWOOHac1BGXSMj0vTNZCSaOKhV4ITp/mHe/gh37oAb/6a4/ZnY8ZN6+y3Nxnb12mddhYshzoa1p6XqAh6UFXyiVBlahZZBdKCFGDKKITiEB0ojwvBRpC14MSukHFoDSFjQ0qWc9MM9WZJ7JoGTa3N81t23O130ceP+29dz/r6XPbjh5K+7dplVKYO+WiTKWIEK3JIaWQaxaNl11L5THvvfs+87Bp3Tb0IBHIKlmhowLJ3Ev0rnqzrnRJC/bFrD/zyMee3Dz1cx54oHsBmhfo5hu+4RsObt7wedlLi9D6kk5KImUVUUKKooqqNLTB3t6ecSyLxTkbmyd94ze9xIkb2ev0WGlDiGj6OsVUMtKYTbOwu2okexN33MmP/fApP/P2j3rqYxu2tq+zdeCASTdPa1llcNGMHmJgDuZgal210nW9z3JmqKbNIStFNCkQolJUc0kgiqa06hJZYaiURUURpQzKiGaSetCTM+cvGIfRspG9LCIsB4ZEsDuFedg0DUt93OeZ3XTXhx/34YfWzs/bDh1nY0kLmudF0E26cEFarSabi24xTZatufKq9PhzCw89cdpq3DFHyiKLVrNERKhgDqZeRo1oVjOBRbHZ98Tq5FPrBz7yL88/cM/KC9C8AC972Z+/+uqd1/x3B8ZrroupLHKp1UKUywIRJVCCCBVEoDO2MA6Tp5/9oD/z9Z/r9tezN5fNjV2tDWhqpiXRUkSY51RC4UMf5sd/7Clve9sHPPggG8vrbG8e0cbBuXU39Ukoi9YMkZiRMkOhh4tmGSV0WQwxGCIol4UQRQghRKVLAhGoEkEghOxJILoKslIUFURQQUXZ2hgFappldRkhqvR5NveiNXPRi95CLJeM206e2vPeux/08GMlF9sOHyUbFYSQKESkxZCy74lWqodxTAePbLrz7pNOTwsrS4WqElUKc6QKelBTt2xNBOtOFQ1t3jNOp6fHHvrov17d9+6TXoDmBbjxii+66djWK/7yvnbV/jZtGual3pNAIQslBFFECSWEIUJkeuLJj7rttqv9ya/bMm4xLGYZRC2YyUa5KJmDVefZU7z9J/mhH3jUu9/9tM2tG2zvHNIrVB+sJlqGjEEz0FNVEE2hihACgaiQPUWlLKpCJRWEQkghBBECFS6rCJdFKkEEQQiEFAKtyKJVyaI6OhkpknJRIQJNzLROBE2J3CUnNW6q4ZAPPrjnnXc945Fn9jl4PO3bZhEMq9QimbuWoYTKQc9B4tCS9e62d939qNw8YrdKtbCeqdbsIQda0aTq9F5ECExJYNh7blyf+tg7zrz/lz7kBRi8EFFjVoytp5hHYiAQLuqiIxNdINGjqE4103zBzr70ylcdsb1DNDILRbFesxiYZ9Zr5s47f6P8xL98n4fvP2Cer3D86DXawJnT52hpY0GsXdbKZeV5HYnuoqB1IlKFy7qLoqvoQkjP64UKkSHRgyx6EEVFUgiiSHShlcsqXFQChSgq6IEqkSmj64giXVQoIugxiypzpLXROps4sOHp1drP/eYT7r1v11d+/lW+8vZNJ/YxTAxDuqSymZRuFpqjA69/2Ya337Hj7t1zlge2XZgYMk3BPLFqLmuI7ARR9AhzZyVNhtZ72/ACDV6Aqh5Uc1EgikTvBCqoKjSJ7qKYXRasdk87ft3oNbczjPToLulVMmaLZaJEpgtP833f+7h3vesRbbjS9uKY2YaG9YpW2xKByBU16sIl5XmFyBBBryLCf6ZSIKrM4f+nqpSLIvynqogigo5yUXhBqoogPa97XgWp6Jg2yFRBD4Yt1jWZlkd9+OmnvfXt93vvvVv+1Fe9yKuu5xDG3mWmUZl0vUozuP4aXn7TVe5678ds5rYL00qMC9mZ5sm8HkzRCaJKFZmhEMlUXa8YRZYXKL0AJSPK6L8gEbqspBOd7GSlQBQV573opv2uPIHmou6SjCSKDCWtLvATP77rF3/mIeuz19ls1xpyQ3RWqxLYWKCz3ts1hMuiiCIQyCKKLKJQJXqJIor8f0iDu2/b97su7K/35zfnWnvvs8/JAwmHJ4HEJBBtwMYhCrRlqNRKW6ui1N541TF61dv+Fb3paEfHaP+AXlmr4jAxgA8V8QGBWqkgDxJEQkYgECA55+y91vx9351rrpyTHE6Qlfb1wiB1kZIyGKSkZFUwZUpK3GvJYoqipARTUgYpU6akpN4wdRFnXQazj9nJIq1nz585vPDIur7Sp1/t+dPf72//xK/5n/6Pf+mXFs+ddbQEB8tVKuVq+MB7eXS4td8+F7WtXXa22XRf9r1Oe93ute+177Wfat9Za9n3PVbHA42Hy5QpUyympMuUlCkpKWlMx+rJdjx57wdeko19McO+dow7xe0zfvpf8NHv/0nvfse3+H0vv+zmFT73W7s729R+e7JuOQxbrliblClTUlKCKSlTUoKsmpKSMs5aWZVVKSmDlJSs0gqmpARxL2XKFCWNNKakDFJSpliRjnS8xarp7rDquOqwuN4euXkWv/kar6Bve+T41X/Aj//y0d/4YZ4h46LrhN3BMjgO7/ka3vXilf2V3/bkENlPsp8cJ2YPHW2sVbd73ZyWvayyN05L9zYeaDzAEalYdSclmBKkY0pKFinbIsXO1TG+9uvGCrO5WKvYnFYptzf83R/6BYe8ywuPHvvVT/Homhdf3Dy6Yixdt9rawsGwjyyCYMqUlGBKypSUIJgyJWVbBEFWZVXKICVlSlZpTUlJCaakpEyZEgRTUgaDlClWWRWkLqaxrbF1mXWy7ct2qmucni9PHjHXfPLXn5sXnuqj3+fv/PAv+eVfZSFINlosshzwrpf4iqdHbp85ZjN7ZdW2sGpEjbWPtWqt2k/LvrPvtZbrdg4e6ODhGqSktTWaSsbKSEko9qJsC93UePwIIeNsbHONsc14/iq3z/j5n/m066v32BdXj2+99rya0anD1Xjh0bW1ds+eL3HlcBW3xaok7qwwJYsVZ9GSVOOsOvG6ZWzLxXKvpSFDywoNU/dCQsMKca91kaGJFaJaVpigpC52JZGFjmQZJytLepAevfYZ3v5k3DxfTusVL710wEn2R1773LVPfoo/8C4mJBFDdyyM642nxzoG+3KYzb5Gb9mMLhpidLFCMvadk9pX7TPxQOOBhkyZkjIljXRMmZISbGXWEmxiSlfNhrLWmBl39r2ur/nsb/Pik3dY+zjd8uh6PLquJ48PjrPZb5fbmxtdJ4+PB9cb64ZtMYvslTIlCKakBIOUlKyaMmVKSspgkJKSRTAlJQimZJEyJSUlCLJImZISTElJGQy2RUpKSlbowXSkYyuPh+shtzeu1bXl+W9/1pNjrFOcdgynOhsMDSo4LLb1zKPtaD/VIQfbjO4cBiXOGox0tLUW+15tdF+bBzp4gFhNXUyZshBnpUgIVmufZbJkHTw/sV1fS+JiMYPSMBt2Zlg9Wafd9SNub3aGnpbNSNCNtawsymFjF9O4sxYTEhoaBgtpJBiWszJomLpXVpigrLJWZUIQElZoWTvdasRFWUHIoshEw0rFvda9YetuZYwg9EiPhGDblnXLdUKP+mo93Z5ys2zrVQ07MrQkQ0JcbMPWk5tnJ4erK/u+yNg2TjsG9WZ7rGFfu9vbW2I80MEDJFNnKVkVDJYvSEgrWbbu2mrYFlmbKZYvYZHNuJcVWUyPmkWHMB0tGpO6szBYcTF1VsSdwQpTF8tZ2dyrs8WKi4Ypy70JLcoWlrOSEmRQtJJYYcryecHCMFg+Ly62LlTsdEO0NC4amuKE0bXZskmi3dWtFRaKIg0dEgvBWDhQdAy6SBisMu4EdVLTSIPRZTzQwQMke6c6JZiywtTFCimxbJYdwSpT0pGFIijiIh0pKVPSzZRtRW3uNKzQRYWJO1OExEWDRodilYSGFabYWSFxrzUTdxaCoFg4TDQIQcuOBItJNCjBDEGxnAWLJmac1fIFmyXOGrXZnYUVVmiQoUct+2I2JBqK+mKDTY1inHXRgy8WpGyLhC0ou0hCmZJiebCDh7hFSyurtJIwLqYoybizWdaKLZyQkqIIQuPzQklJR0pKSupiYbB83kJpSDDebNFU4izuDFZcTFEaZlir7szEneUsTFmLDF3ulagksqEsnxesSjAxZTkLU9ZyVjNxZyFGSsPuLLS0FO2IUJSGVWosB2/RQS3jTsrWpUVJXaRsoWUbsugwaFhINvfGQx08XNpq605K6qxWnMU0GAvTakgZJ1NfUhYWU1JGKUrcm7KyDJahKFPWoN5ixHKnWjIx7q24mNIycbFWJTFYzkJPu06YqHsJE5Ri6mK5ExerGkYsZ2HqbKzlIomEFWokBINiij060SK+oLRHrwvidaMoUqzKivq8hTAYtIyztZxS6SYlJas2D3fwAMl0tUnda8VZq3Yj2CxnjclmhSpBdhdFEG9WF2MnNwa1tKVDyCrDZFnG6war3qRFSDBMWKuEJMa9PaTeMCFYZbBwddwUOyYuFrpoSWhImLpY7g2WGrGcxcXUxTLERYowamXZOojlbKehi2wUq2ilBIO0NIgvllVtKCm6jKjYsJazkgrS3XTz/8XBA+zTFXrGKvFFFgndXNRFypSxi5M3O2EwLNRF8orkkaiUdCxf0FadZTF1kWA8VFtFEsFg9wVtSbxu32u1VjAxE69ba8k27rQUibdoq84Sv9NC0TBlWTY7dnemm2U0y67sYdukbN0NBql7RbwhJUiHErTObk0OlpiGoBStiylxtnuwgwdoV7yh7tRujCKlmLpXuqjYSutevNVgMZhVW2trtbQxWO5taOlQywq62VBnZYUJyo4pOzYUCylNzcQuou6kMUWq2w1e81uvfMpyyzwyxye249sct0eWzRj7YsYbgpQmViphn2WwFkkIOsZZWUhp2Jx1yJI6q1jqrBjWWiLGEsRZ0EU2r4t7XbEtlJYUHcKGhaKtibNNw/i8zYMdPNTaycluEwcp+76bGUXrIkg5lH2xdawVLULj7OBO0JCQncPpsePtwTF07VbHHmacDV0Ya7HmQBYZd1ZcBK17Q0/MxMWQ0FIs1WNUbK3D4oDTs93eX/HCS7/lz3zv+7z/g0998lN87GM/4xd+8TOePPl6V9cvuik7bm65Gg7D6ZbDgeORV2/KsdplpSZLbDR0rJIycbGCGfc2K+4FdVZEGilWpS7ibEIpgkEX4+Cwlp7Yi4xkdFXEhOUsmymz2Ivu2lq6e6CDhzi6MywLzZKOO221404xORmkB1vZGl3xxRY29zqViZRZR7M2s8bWXctgLTLeMKJlupFqYisNygoN22IlUpazMouGhNuG05LU1WFzevY5z56/5ur4Gd/+7e/yX3zve3zdNzJH9vJtH/4mP/yP+OhHfs4vfeKXveMr32e7PjqW0w0pj4/c3PDsph4/Hc/2mi66LGclOVA27PGGrVix4mKwgiLOQhFSUm8VWhfj8zq2Li2rNC7SGOxxFmkNVhlMR9b4chw8wH7q6pWeaautdncvmoohLpJQErqWL8fUl5RVGZQVUhoXbV0kvpQEpXWRuNha2zaePX9V1/Lq5z7umz947S983wf80e9A2IbbnX3xVV/N9/4FPvTh9/tbf/3X/NDf+3GvrXd66R1f74VHj7z66o3nU0+eXDvt8corNY9iOnSXjvbodQkty72GliJx0SLeEKQoUw8WpAxWUYyLlMGKi0HrC1brgQ4eqqtnatcW0dadKqqoKuKLLV+OKSmDlkGcrYqzMKVBmbhYq+7MxHIWNqwyWHWvLmLZ9pPTq7/i69/7dn/p+z7kP/4eHr/Avl7z+LCsPnZ1GEc8W3RuffN7jr72v3m3P/kn3+2v/I1P++mf+WWv/NZTL770spt18urzZzKPHA5hsWazrV3FqjesIe5NWc7CFKVhQoMyCBrizcYXBPFWKUFKwlpFJHRjkKKRIWV8eQ4eqF1pq61aKqqIthgSLBJaFa9r/Z6ClCBICVIMSsKUFVJvMnGxViU0mBgUUUncaUlvPX/lU77z27/O937fI7//m5iNtXhyfOz29rnjkdvbW4fj0eNZarn1zDteeORbv4Wv+4Z3+at/7Ym///d/1X77iu1w7fZmlwPXjzjdMAszTKQoHepsVUISU5azuJiykLJCijBFCaZ+V0HKYEqRRYZgK3vcWyW1dTS0xJdvPECy18XS7mrXFktbd9pqq6221lpaF21dlNZblSmpN0zZylYG22JKVs1iypS0UlJSUgYpU6wKpqSkDAbZn3v5Xdf+/J995P0fYJXT7SsO85xyPFyzxmE2sWyW9NZjdeW5w86738Zf/LNPfOgDX+Ozn/l1Nzc3njx54njFs+cussg6yB6zMwjSStlKVmlNSUkJpqRkEaSkpEw9SEpbFinbYnayalukbGVKSkrKlHRsHu7ggap3tEu7a50tCa2zncayS2OEUvWG+D2MwZSUlMHCBHWxIyVBndWdEcu9DXW2KkJoayayWIt93Xjn2+PpE7awHZxFu9zpTgYdFsLmESvSzVV55dnyrreNd7x48Ph4cDg+8srtrR4OZhsWwraQUewlfW6mliMdd8ZZS5BYzkJKMQga4mHGvZRgoauSuJPQspBGFDGIL994gGRKvdlyb5GFpXava6ute8ubLW9SF1NSpkyZMmUrs0hJSbGYMh3bYltYNUhJSUkrZUpKShBk7V579Te99CKnW3QXm8nBnWyskg2zsGjoxmLK06txKG5fczXR03K6qavD0JNgMBhLchI3ZLFiSkpKSsoUrSkpwZSUlClT0pEy/t2mTEmZMtjKVrKzla0xSBmkDKbONg918AC3bq21Zs1utiNd9rVs22a12hFRVK2yJdistbR1ERLqC9ZaxmbQVneyKs5WRRjGYFGMi30nzmbcibNFQrGwZbN2tmFm7AshZbBtm5sb3nZENrU57SeHjbWY7VbdiLMMjr5YSk5MOc5mHG3rxM4RE+wlN5KT2h22ozWP3e60DBJaFysk1FlQBIsExWJWtb6kYDA4nU62eaRl7cwhslgY7IuECSltmYizVXYPdvAAOU279Y62XtcuLUJbEu1Ooi127XIRX1ISr0vZxIh0bGgpJixDR8qgzsJaJN4wWGHKQhBniyC7i73IkrAW+862MdvB7c62sSzUIBapi0FRDsNx+22/+qmf8vaXD97x9Ct89tmtbQbV/WQ7xrYddC03N7WcDRMExbiYspyFKS2DIs5KSsrUm9VbBKmLlK0oMepssYIhzkpKjK2Mhzt4sDUsLLXo0tLGvSBq10a7MO609eWYsi32uLfIsJWGliJB2ZwV42KVhIYJ+0IQtrpondW+XuWAjX0nIcNp0bDNtdgsjB03khPzmLpXvvcvfbXDS4989GMf95lP/YYXXvx6V9vRvnPbTU67fY/Mix4d2PH8lmzekB3DClOWs5Ci7g0NwdSXlCLekDJllZSUlOVewjhbNaKhJa2UzcMdPFDvWWuJk7Ta0S5C0FZbRVuya6ut1peUxBdLSZmSxKnE2aoMSpAwJah7a5EwYdVFykLKQhfZXAwOOVjLxdUV+yK4OnLafd7BnWUMakluyZHS8u6X+b6/+A4f/vA7fPRjv+1HfuRfyf7Vrq/fqWskRx2e73V7G3Pg8ZHTzvJFymCFKQt1b9CSkkVK3Eu9RTD1hilZzE5bW+IUtsU+LqIYKXFvrVUPdPAAM12yVrvTXQ2t2omzaHcS1EUWxlpLW7+XwZS0WoKUbdEgpCwM1kJIEBdTgoUJqyhTWsZZ6SJIN90fmZ3Tc66eMLM8O924Ojxy3FyM1w2ufcHSnCxHm3jpKd/yLXzgm1/yHd/xrf7aX/1XPv6vX6Evu3ryxOFIZ5dV7dH+nGxMXCxniwyDFaYsnxcsiiy0fldFXEyJsxKMs1I1YmGKkA4lYcKU8XAHD9Wq0qod1Y4k2grautOWuGirdi3q36mttoKUltS9opUUESQuUveCMliYsBZBykIw7o3NrKceP+L6wM3NydVVHSxTlIx7pSFFfN7CbtuGHkxplxeux3d9Jx983zf7wR/gH/7Ir/nZf/NxT32lx0/f5vZ2t694/OTg5sSqi4mLtRBm2DHu7SVDyvJ7C1JvMiUlZSEY7K0gRchCKo0vx3iAU6atnqldW221u7baanftrq222mrrobqcjTstbb0uZcrUm0yZeovWm7TVumjrdXF0ej7+7cdRtjhbjoejYD8VC8ud+GInFAeM/URwPSfHPnc1vPxV/Fd/mf/2v3u3P/dffqVHTz/h07/2SVfbY2974eBzn31VMGVK6k1aX1IQTD1IypRB6g1TpqSkWPX/18EDNWux0wNZFsamraqmlBWK6a07taN+V42LULfaR76giDspwrYQDDuCrTQoKwRdiDd00brYSodt33z6k6/66Pf/tre98yVf856DPjtYarvikNCQ5a0O6t6+1+GIOjvJhC7ZORzGN72fb3jvu334D7/b3/qbn/MT/+xnNQfvevfX+NzNDQ5YxllHjJYVDE0tu0G7iUhJIyVoSMfvlDId6VAGU9pKIpjSOhtZZaLD1hj15Th4sBv1XNcmhsZSd5KlliRaomonO6m6pS4SqtpKInUvyC2WLtpoF7NJCWYNIiFIaKohJYnURcMKWxixLMVMWGVxnGuH7WU/8SOf8Mlf+g3/yX/+jf6DP8Gjt8faWd0dbBjC3sXazXZk0UWGEersxClkyDgOp72ut5iNP/qH+Ob3PvWj//QDPvaRn/eT//JfePqVH2TG4bjb91u3N2ObJ7Jxe2K75ra79rlsbLlmbeYUh2xSWloSFw0JrYt0M3vYWa1pVGjMYh+sSmIaWSjbkFVfjoMHmOlqlpXdZFFvaHdNxNg7tlK1sqtF4k7riyyMt1raurNamSLuZBFxZ3O2MOy+SGtLNCgpDSsExdrLxJ19bW6e1zuevs9vfPJT/tf/8Uf9vb/7xJ/7i/+eP/KdzNXGYpViZuyn8fM/U6dTvP/9CBlOi8NxOBxxsD+v7RCHLU7r1nF2y8HbXzr47j/ON7/3fX70x/nID/yCX/vMcmvz0ktf6fr6sc++duJ0cHzC8x2pLZu0LLqwyBx8KUXcm2KFRUrcm8adYoqJhRQlw7aY+rIcPEBuTu313qo7bSlttaW0S6faUVXV0tLW76WlrTuti7YoZSW00hAXLRNWXTTeIiFBRovQuleuD0e3Nzx+9DbX1+/ziz/1G/7n//6nffs/+YDv+lObb/5DzMbtiV/5BD/2j5ePfP8/te9P/Knv+Vbf9af4qq/Fxu3NOF4NZQ5hULqPwxwFt8+5uuY97+Vrv5Y/8uH3+shHP+vv/N1f9Olf4ek7v8HTFw+e7bz6/DUzB1fXR9Oj154vybi6YsfzZ6V+Fwvj3kINpkxRigyJi8G411J11s3DHTzADdqq3bKTZWzaancazdCxVFpVLS1tfbGIL6WtttpqK6EtpWgJWuostDWJO6toZeLOhLVIaEiYstwb5MDa2Z+PbXvR2154p9vTMz/2w7/hn//4b/pjf/yrfMsfftGvf5of+oGf9IlfHIe81+3p4G/+1Z/34z/xiu/+ng/6o9955cW3052WYouL42FjsYUXrjjttDy+4v3fyH/9l1/04W/9kI/+wOf82E/+nFeeveDp29/h6eNHujavvVprxfFq2Li9Zd954fGV36lBvclgfN7aZQ5WXUwpUhpSGlISUvFlOPgytNVWW+2urde1lSwXKVkk2tFW69+ppa222qqdxuoyopZ2VNVZYspy1rozExerFjIR1TITy71Bwgq3ty6SKy2ZOmxHqy+4ffXgB/76Z/zA9/+629udvuiFF77C9fULJmUe+9c//Yt+6eP/t3/2j77en/4zL/uWf5/tEUJzY63a5ojRW3LgMChrp+XJY77zO/iDH3rq7//Db/KxH/xZ/+aXXtXtKx0fvd0L17GGmxP7YhsXNze/Kb5S6ktYGOpsSReLQVrTWCElYcpC6mKQ+rIdPECy9UxVu1DLkpaUhiztaKuqqqWtdvdQbS3VFksbTbTB0iKbtorxBWvVJlaYsFYlTFiLGVaIszLYwmFz8fzkLK4fbXji2c0jLx7f4dXnPLri8Qus8uz5brJJnnj5K/6Az7722/6vf/ZpP/dzP+UP/7GX/ad/5iu8532ceuWweUOOrOc35jBkzDaEwam84238ue/h2/7QB/zQD/GRH/xpv/5bn/Lo6cty/aKuMYmrjeeW9fy5qbdYqShxr4tVW2lJUQZBS8OUKctZmDJFGw908EC9Y8fS7jRWSiuoYtfWSk2XNtq60/o9tbWrdtfumqiljYraCMuOuJPG6wbBYIlxVlaYoYuEhhUXm5Pnz5a4cjiwdl777HPZ6urRI/vi6WO68fym9nXjcDya8OyG0+LoJdujF9y+8ln/4GOf8S//+W/5ru9+rz/x3bzzZToct2Vmmesr6uzEfuP5xjZXDhnrxIZv/Cr+0p/n2/7IB/2Vv/7zfvYXPuGTv37l+snvc3z8yKuvcerJ2196ye+0vNlgyiAlJXWvqIsEIZjSMCJ0Wx7s4AGS20pb7CpZmjGqdksQjNqlUdWyY1pfbJDEnYx7cba0S+2WGneKaMssLbL5UlKqIgYrJASrCFMWBgsz49HVQXdOi23jyfHabjnd3JKjvXSvHJbjNk6nk+XKoytudrKRbq4fv91ab/epX/60//1/+1k/9k+P/rM//x7f9u0cno6bZ+PqCqG3t3I1Dk5OXjUe27aNhfLii3zog7zv/e/zw/+Ij/zgr/ipn/lFz2/f5YWX3mV39Oyzr0iZEmfxJlNSZrEtprQMWlZcTOmqSUxJ2MuEVMbDHTxAe8y+Vpqd7va12xKnnmQqCSldBI2VJaJlt1yUtcjm4nQ6ORwOhLU4HDf7fut0urF3d3V9sJSyJdZaItpdOxpnESSRxJ22gi3RRUNKg5ASZ6H7aMhwCBbtEhyy2XOyDU20xGZLsdv33WFOiuWR0/NheMdL73Ja7/SJj/+G/+V/+Ck//qNf57v/9Es+9C0ULd0ONoza7KKE253jhmE/8XjjT/5HfOiDX+P//JGv8bf/zi/4+X/7a7ard3vbi09MmLB2tmEhYu8uOdpCWptw4jBj3e7GQZFgQ1ktKwRxVlm1PNzBA2zbWkpbWrLI0i5BE7pjxKilrcZZtLVtCAmn/eS4HRwOB7e3u6PN8cirr37Oo8dvs3WsdbLWSUNVG+0Q2k2zI9qRxJ227iRxsSpisMKUhbgX7GGcrTLFYAwW0oVKYhWNSbBbWbpOZGMt7RhnwxjbvNPjR2/zj//Bx/3U//Nx3/EffoM//t1v943vY7aj25J147AdFMXhilWCw5F1qnUbL7+b7/2zfPAPvtf/yxych++a3wVhvj+f7/O8728725wzZ2aSTJJJJgkzmJAJxEkCpNBoAVlEIVQQELRYi+111V5qN7Wt2tp6Yf/ApWotlNaySEVDQYiAmIWEkGWyTmafJJPZ58zZf8v7Ps/30/M7JwEv/zpBtvv+F/9y1wc++LTzZx+x3j+lascwICiE3xBBSk3TC3NQJRsZ9CoqVNHQio6GKAI5u26D6xDRSimHoqteyoxSFRThUFdFRaHQHOq9K9dEUL18XiY6M9Z9tl4fWLRJpiu6qlJVulBKKwo9CIFSFQgR4VAVIchQPRRS6EGrUK7pSuZadyjEPBD0cFUGEYNeXa8ug4iuKtFENV3TI2QfKCqIJNtkHPatp7VjR15k99za//dPzvjoB/e95etudvebOX0TrW2j60VEKUUQ0tzJFsbGVKxW3PEqXnn7lo/ec5u3//xZR7cm6TdUFRFCqsJM9BAVWlGuKKIQRJG9CDqiSPQikyxfkMF1WGfv1efqulBKF4LqIlJV6TEjpZJVSmEmUu9d75gx0FpzqKq01ljTO9vbm84c7NtYztpI6a7pqgiHQjmUqkroqlzR/NuiuyJEoUoEEaEHWQh0JMoVXWmy6OGqKERQdFf0RhBBC6qPWrom6J2aS8RaRLe9POLgIGyNW7YWxzz5mQv+nx9+wEc/uu2NX/lCX/nlbGymTHqnomsZrko6uhKxsrlJ1SikL/1iXvPK17mwRyS9yCAjXJOqqE6fyTkoRCghMM8lfE4vEWTRkYFevlCD65CrqXoKV1SV0JEq6IqiFGZVpZRSaHrvMslEuCojHeq9yySyOTTNK61tai2IblqvxNCI5pquehJdFRGhqhQCIUT5nOaa2aGIRqG6CEKIClkL5dCsoovqZGgopWKmShhENYpCJL2TQRWKIZmD3kutB60trPbJ1kQjGkePHDX1hU9+6JKPf+hB73vnKX/krSfccScVDGOjODiYjctmjpVuEroUhmiiJUvGZOsIhd4nmSmkjiYlxkaLgR50otGidF0UEaEXWXQEsujIIkpvUeU6Da5DRKsrlKJmVYNSqmaEyqBmEc2hqlKKmM09DZmqkPRONFdlJjpJNvb2dpUdVTPV0dFUzVQqneiqkmBWEilUlavK55RDEeFQVTkUERSlZIU5iI5IV0WnumuCHkJDk5KiB1FkMHcUlSQaqkgDPWRSmGemmRxY5IbIDav1UR9+/1MeuO8xb/ma233t1205dZIcWS4aQSndWkhhFJKayc4yMFC07MqhNCvNb0jpqk7pRIkgk5pLZqgiXdERCKKIEr1HuU6D65CxKkVVCVTNSvi8qhKoKlXlUAWBiHBwcODChcvYVkVgnmetNYRDOzu86lWv8q5PPmXKSQbZ6DWrQpXSlFJmhSqqUg8SVeVQRKCrIqs5FNEdCk0PV1UnEoEKNDSUQ1VBuSoCQSQRs6quC5FpjpDVFUJoUQhRTL0TZLiqr2dTpjY0O4uFS3vHRN/xsz/1hA+8N339N77MG76CY8fJkRajFsk8IFQRjYqmd1ow924YQimlpJARemf3Iqu9lejb0qEw9RI5o4liriL8uiiioznUW1S5Tuk6HORQ6D2CHkiiK7MyO1QVroq1OVYoJbXW7O4eOHdmlxXpUJprUiazbj2Rx/mqr7nd1M6r4ZJp3jXPs+ilqoiurM0moqsqVaFHN5v1mFVQqCpV5aroRCc60VXNrqp0KItWZNGK1skeokIWOdOKLBJRJZTQhdIiNSF0qUR1etFnVWVIep/os8WQlsOoaeb1ZL3utjeOsT5me+Plnn/6mH/49+/xA//Loz7wPuY96iDV/kgFQQS9012RrorqCCEwa+hYrTlzlsuXBzUzNFqEqlBzMhOVWkcPUenzomiVsqIT5Tql6zCuY65I1Zs+jUzNVJOpVuYq1VP1QVWouERetjaZOuO4aT5ID378cYqYqd61IR1Ym5XYwMDtr+drvuU1Hnr8PXrtWeTCweUDizbINlvNu3ociBbMofdubWVua5PZus/m6koQpdesqtO73tequh5d9aBQ6LRiKFqnFa1oVbJIZCc72YkezEmNso9iYuw0o+xNVGgRIgLdoWEYZKZ5LtNEFa0G0ZMZPawP1na2Tzp59Pf56PsnP/gDn/b3/g4PPsSEOelZNLKRReuuasNgPujUYKyQ1sokFjz+BM883Wwvd9SaPs1qCltDE6sURVRqlVoPVxWtM8wLsWqiZ7lOg+swtN6rV1X4N3QVpaqIjomaVZUeszQps4ODPVmjRz/5nGcf4sY7yBhM1lIKJbC/ZmObb/vTt7q892V+9Zc+Zeorx264ye6lPeMYNje27O0dmNa7NjeOi+pW1VWlMguhKolSwqGqWbmi6FGigioVQZGB7qoMCq3oiigydNeE0IuUumsSvdOCytAluozSUeVzkgqJXq6KmUIT2jjY212bptnJE69Qxb/8uSd98IOX/ME/9HJf+Zb0wheGSqpP0uDf1MaFvprlMMuWJoPdAz7yMeb5iCFGqrQhtE6tSWRnTrK6ikA4FIVeUopq3XVqrsOpW169tV2nv3+jn9jOPgpFm4SuIlR1EStiLapRI2aUbM24MXrk0Ye99PZXefkdIw2tm+bJMpucJsOiqR7GY7z+q0+7+cWv9Ohjn/bww4/RN2y0o7I2qNAylEmfJxmhFa2I3kWkkA5VlR5dSd0gaqCaQxET1kRQISIcKp8TpQIRyhVBoVwRIVwRVHYVhVBIhzrRhZJCVIhKh6IIZBBR9vZWNrcHGTM529rasF6zWnUnjx81H+x4z7s/7BMf/5QbT97iRbc2dDElgUIgKCEGZoODmcc+y0/86IOmusGwGKyrtKFjVnMaWigEqq30mIVBoKHZk/3cfP78o297/tNv/7jrkK7D5m7fr75aTfb0OCAmdFUzOjEpK2VCqgqUstZrTQ8b7aRf+Nn3mS+hyBpttAW9WR9M5CyWk935QG1y99fw3/ytN/qeP/cf2HnRns+e/6T9OC/H2TSvVF+pvm/o3TCTMxkhiqrS0VGa7ppepayJlbJSJlWzQ1Xl35ZFFIkookhX9KKX6CWqS13qojq9RCd6iko60UMUDS1oSlgJa8ePLu1e2rV3eVf0cLDXtWRnO63Xk4uXn3HixNILbzlta2t0KDP1oAqBonqXQ5h6mFATv/Ku55w7f2BjuaGKqFn1SVaXSiIRiOrSJJRAKGGtaj1VP9h1nZrr8PjzHzt48ak3ffsyjr2wzRtIWWsVnSiUECKaKCJc0UWE9UHX2mBza8eTTz9u59gpr3zNjt2L3bjRENpioZTVtDIuF0TKkY2jvPKu8OrXvdCse+Dh+xzsrexsH9MyLCJl76JC1kLUqKRCKSr1aETDLHISeUCsNJQUmnJFIFxRKOGKICVCClGBEEIK5YoIlBASiRBUEz1lJUIikDErKxkrEbP1PBmG0eZyixpMqxDB1C87e/Fed96Vvuv77vSt33HSzS8i0hWTbCFcEWGutWgrdJf2Qmvpwfv50R99wDTfZFjumGomZ9VLi2bIUU0IIjq5RkeICqkMsWd18NgTl848/Leff/xfP+s6NNfpRSdf/8ZlHL8r+6aYBxmz0EW6IqhGhXSoRASVhmGp0KOLxkc//hF3vfpL3PTSIJBUMPVuHJpUVus9EaUyzRVO3MSXffkNXnXHK124dMnDj9xn99Il42JDq4FKPZIMFaV0CkkKYRbZqUnoIkJUKIOKpMLnRYTPC1dUOBSFIFwTCEERldI14ZoQDgUChQhXdKlLRKXIpT6HaT0ZRnpcdvbiw259afr2732lt37HSS97FW0kYl9K1VP1WbRQushSum5TG9Lzz/F//tBzPvVot7V1i3Vv5pplpqiU0bRKq9VkaKkihJlwRYoKrWgu27v84AO7F+/9u88//msHrkNznV5w6q6XLPPE1w3TMdEXMjpm5VCqGtHItYoualDSMAz2D/YMi3Bo9/LkyafOedPdtxq2WBUGRKqatQhDG6hBi5SNaaYGbrqNN7zpRqdufoEzZ877zKeftVzeYK6mxwFtX+WkqjuUUcQBVtQkBDWoGpREqAqiiCKKIvyGCFeUEA5FEUGiEBVCKISSQpQrQiARRSCK6IlB1CgszHMal6mbPHf+PptHP+Mb3vpy3/Enb3Tna9k6QiT76/NaDtJIhagmIsx9T2aYa6lX2L/MP/spfuHtj9nZvp1hsJ67zEH10KKJSooQIkKFK0JUCiGV1pshLrl48cPv/MQv/+UfdZ2a63T6xi+ZNoaj39fm46EvDWZ0MpVGJVFCR4oaqLS/d9Gx49v2dne1YdCGTQ899IjHHz/v7je81GKLXoxJZlO9i0gh9U6hjbThQJ/Xchy95M6FL3ntC20efYH77/+kudb6sEfrMiglhIygZllkNVUNA5VEOFQKoaocCoXweREhEBUOBSIIBCoQJEJJQRCCIApBhKsCEaRQqCyX9p81xePe+OZbfN+ffZU3/4ENO8fIBRGz1I1tlDFS4VAkc6cNaaqF6GFe8TNv4yd/4h5Hdr5IZDO7ZhjCtApDouhztxhSFYGKRBNKVmhVhjzn/IX3/4OnHv7F97tOzXV66cbLz/XFkW9fOn3DWDvUWlQSIxXkjBkNo6oUutZmcz/Qiyq2to6Yp/L4Y096+IFzvvhVL7Wzg3BNpgrWFVpDdVGzMIhcqCKSzRu58w2DL33DS+xO++576H4XL+3b2DgqDOb1SkYz1CBqIWqhz0x9tliMsjUHBweGYUChRKDKNYUyRFOBKKFEhavKVZm0LPpsnmcZg3FIh1b7s7ZIc3WiE5QwJPPMhcuXXFzf547XLXznn7rdN37LlhtfQAxk0meaVHOq3qgQWSKDos9kJjPnnuOf/yRv+6n7zPNJW9vHTJ2qLiKZaEkEgUwUbQjrVRky1EzvLFozH1yS+cz6iSd+8X84+/gHnnSdmuv02Qv3Trecvuu2cT71hmapVRfdFSNVxBodCzQqVUyyrS3GQWuj1f6KGGxubDvYL8889bwPvvdeW+1GL37BthiJRIYIupLRRSCCQoYYqIFqHD3B6954wu2v+iLPnnneI48+LCPtbB8z7XfzlMa2dGhcjJabC7v7u/b3Dhw9etQ0TSgR4VAIlIh0KKUoChGBEK4IAtVnVd3QBsvFYJrC3v5KdTa3mqsizHMZFmmxUc5detbe6ozTt6592598ha//lmNe+WraBhqCXrSkylWtEYmYTOsuqmlY7/PAJ/iR//28t/+Lh20feYnjx0868/w+kbJ1USEqZJHImBECvQKhJZn0dVi0bhwuu3Dhk/c8t/eev3nhs/dOrlPzBTh++oufGvuxPz3GMsYiZlcsXJVrzKoWGNDRVd+3mva1SKKZ5llro7EdYdqwf453/9IHPfrgZbfc+BInTrgmWddKZiolzMRaZCeoOVWRC6bglpfzpq94oRtP3+qzjz/hmScuGcejFuOmSHqu7O5ftL+/a1wsbCy37B3sy5Zkp4hwRYkgq4QSAiUqBCpKBFEhwxUpK1Vnnhkay80mWllNs/U6LJYhIu3u77qweszmDc9689fe4E98/81efTfbJ5HsH3TDIgimdddaCERDTOZ5jyhDLvUVTz3GP/3x837sR+735GMLp254mcv73WoqOztL8zxr0WUlFQLRZmESEUrQaRmqaEmfaMOBYXzak0++728++Ct/692+AM0X4Nln73n65lOv/7JFLl+1qIGeGNDJlYhSBgRVZDcs0jytDTlajINpPdvfn7XctLVx3MKWwZb77n3Yr7zzQy5fSDffdLOjJxjaoPfUUdGlEkqfSxpko6KLoYtMbZOX3bHwhte/2HLjJp/45Ec8d+4py62UrURjc3tbZDpY7RuGdE13VZRwKESViFA6AuGqCBGBcGhozBNVjANV7B2s9N4tNhaGjXB5/6Kzl59QG0957RtO+K7ve4Wv/uZt26ewZOoHSlos0+e1FgSyo+u9RN+QNTr3LP/q7Zf84x/6iPe+41lD3GZn57RpIodBtrQ6mLUMqSSiUiJiUkoIIbUIh6oohNLyvMt7n3j08ec++JfOP/GrZ30Bmi/Q6Rvv+NQyxu9eWrScByEJ5IwiSiURKKrPFsOgejdNk8yFbAuqrFYH1nO3XG46eexGq7304fc94APveUjtnnDz6SO2dmgtZQzmnjIWIpLqar227iVilME8k1ie4o67mrt+/23O7z/jM0884sLFPZtbJ+zvra0OVjY2Up8PRAVVIgIllEPp3xBFuaJUFMqhkGoqGSFa13tXkZaLpg2DqXPx4Gl79ZCXvfrAW7/3Tt/07cedfjka3RVJa4PMcKg6ikDNK9EO6CUsrS/x3l/kR//Rs975i0+6+PwJN5/8YtN603pGEgO9Sl+H1ppUQhdCRDkU6FIJEaF6iaRqbbHopv6kx5955//84K/8tZ/xBWq+QE8998HP3nLjq29ezFuvH2xQiS6USld0FUQFEdbrtWEYrdcr1RnHDS2DnB2qoA0Le3sHlsOmk8du8cwTF3zo1z7ukx9/xrGtWx3ZGmxskpX6moigES20Nsp0VTbWfaXHWtsaHLuFN77lRW6+8XZnzp31zFNP6tVtbW4YIvXuihQChRICJQRKRDgU0qEKnxNEaUI4VKKlzLDqs93VZZemJx276bI/+p1f4tu+9wVe9tpB26GbTT21BcJVvZf1ejK0FBHMRDb6gtXg/o/zEz/ylJ/+ySc8+/imI9svtr1xwv4+2Rg3WM+sp5WNjcE4hGm11hwqWQ2BVJFKEERRNRnHIA+0vOz85Qd+9bFn3/UXLz75wV1foOY34dTxF79/Od/wLWNtnYhKFDHrOkpFKUSFxbDUclBzacOoV9nfv0TOshXCuh8oByq7yHB05wbDfNRjDz3vHT/3QXtnN5w+cqPjNxBLJPvrSQ4pAtOkYhYZckjaqAKB4NZXNl/5FS9w9MQpn/30I5787BNiXtpantCrUCgRrigRlCsipXSoK4KIdFWiysay2T/Yk7m0tRUu7V323PmHnXjhrt//7530J/6TF7nzzYzH6DMxEJkkq4kKIsicDUMnZiKpYM1zn+FtP86P/aNPefBjLMdbHNk5pvdyefeyrSMLl/d2ZY7GkT4366n0PhmGkkrWIHpTFQgl9ER2VR1dKJEHLu1+1pPPffjPPvK+v3qP34TmN+Gp5+/dvfnUF983tuVbWw2DCqJElApKUqkwT12fu15dtjDXZGhpc2O0u7evDYOqkq2L6Narlb4qi7bj+NZpyzjigXs/7b3v/rAzz5YX3XKT7eO0oUlJLxqRoXSz0DErEaEnrZFLXnbn0t2vf5mIIz79mUdc3DtnXI4qQggiqSCacKhkhB5FBBFKqGhKKGW13rfcGs2575kLT5jGZ7z2y2/yzd91q6/6Yxs2b0bDSCzomKu0FrKRwdRXhnDFYNodZYW9Z3nHz5X/6+8/7KPv37W6dKMTx05ajoOD/ZkqW9sbDg52jeOgtWZaU8FiDFGzFqikBopCJRVUhED20GLGJdme9+zZD/+X97zjT/6Q36TmN+mx53/t4e3jL3j06HjDN+XcWvWugqgUkmhUqCw9JpWzqlkkgr4KLUaiCSGrZDEkEbOoSe+zbnBk50aXLqUPvu8hH/3QYxbzLV5wcmncQAuyYxDRzIXowmS2llEyQrQg2TjJq990xO1ffJu9OOfhRx63v18qwjAslaYqRCTVVcx672SQzSxNFaYI2qCyO7v3tIv90269M/3h77nTH/4TW07eiQFLaqRyVjGL6DJLKdVnEV1G6auQfZD73PcefuwfPOdn/8kDcv0iY9xgc7kQEVTXkqaJOYSRaqqXiC6jU13TVA2qN4JKCpVkEIgeYkqbS7rPevKp9/7ge375u/6yfwfNv4Onzn74Y6ePv/pcyj+YY6ZsqofeQ2qGlkSJIDOlIFJoFFVJpENRRYQoVKgoJQxtaZrY3DhmZ+eExx97xnvf/X6Pf/rAkcUtbrk1qVQzEbQMqesmTRPCXDMGkkgsOPWS8NrX3ez06Zd66rknPPbZT1ksBhub26b1rE+zxaIZIkx9Nk8zFSpLZBcxqeGSJ87c68aXhj/4R+70x/6jm9x2N7ZYV2lboZIeXelKSeFQVsgY6E3rg5yaxz/B2374rJ/4oY974uH04pvuVPOGiFRCmQiiyJ4OFcI1oUSFEKpSRJiLbEgEhV5Up+bZ1lbZP/i0585+6Efe+Y7v+jP+HYXfAne/6j/9zu246Qc364YTw3pHTguDhSEGvXcRqWIkmojQFbpDEU1KpBSa5lBEOBQRVqt9MYTNnSU5u7R30Wq9q8YDd3/1nb7tu1/nttegYxOtm+ZJ5iAyfV5gnqiZYcSMif4sP//PnvfPf+JXXXhydOPR22wNO2pdYu4imoxRDk1Et3bZej5vP57xFd9whzd9zS1e8lqMCIwIdvfX2mKUSUaXiEpmlGvWPPMI7/kF3vtLn/HsZ8uxrdM2Njbs7e0ZNzetK6yLXmQSQaCjD5NCN1BUUEHPWUWpDJGpolv3We8T2UQu5bhn3R/y1JmP/MA73/ldf8FvgfBb5K4v+o/fuD2f+odHnPp9yzpqnJZiHphHEQMxqkgVSHp0ESWiyUoRKYqIJqthQJe6HMlWpr7Wexe50HKh5+zJM592/HT6hm+92x/9Yy+z8wIERiQ6FUSjXFEIV3RRxRSskxXPPcC/fNvz3vULH3H5XHdi+yYbuaP6YGgb5r7nzPnPyPGCN3zFK3zl197uFf8+ttCQRa2sdRkL2ZrPqz7pUxiquWpNXea9v8Qv//yj7rvngp3xJU7uHHdoLnqbVYapwrqH7ppIV1V02mSOpAbdNRVUlh6dZDabaxKtDGNXbbJa79qfn3rq8TPv/Uu/9t7/7P/wWyT8FvrSV377qaUb/qsjTv2pjfnk8WF9VPZtURsimh5UdOWKliICKaKISRMimuiDsEE1KYgSuSZmmSmjqd50YVg0lw8u2Fudd+vLj/jmt77eW77xGDegFwtkIfUiGl3XTZqQfWTGhMLEve/mp378Xe776NNWl44Z8qjVwSTGPXfcdcLXfdNr3P3mUZ7GgAHFXLNsge7z1uuVxTjScTC6asXH38k7337JvR96koNNW8vjNhc7pqlM606GOZCht9CTjqoZXUSoDL1Cb0WUcqjpQqGCHsw16zlri7Vhecnu+nHPnr33p89cuO+v3XPP//gBv4XCb4O7X/Xdr9muF/63m/3Gb2792CL7tlZLhKoS0USE0EQWusiOLozCQvQlNYoIbUjV962nfRFhuVxqtTCtu6nY3t429dnZc09YbF/2JW+41de/9Uu95quWjGgoDMhu1nUlNa2SQmFVCId2n+H+j/HwfXv2d5u2WHjRS3nFndz8YuwgVrRQQmlKOBRmvU+GbFSySletee5+fuFnLnj/u55y/qnR6SO3iZnMmVg7lDmaNeuJ3qgBWSq6qjLrmlCZpmoqqFyLKF1Tmo4KKohlF8Mll1dPOrf3wAfPXb7vb7znfX/xn/ptEH4bvf6Lvv8bN+uGvzLUiS9b1HFjbWvrQas0VIgIlaWiE11oIkZqFLWBVFV6rYxD2NgYRC+r1SRrYblcmvqaKH0um5vbDtbh04894vhNS2/5utf41u9+iVMvwXEMnex6Z12ptRSdlq5YU4WgRjo6Cp2OGJD0pIJ1MYZfV0UGiaiZ3pgxcfkx3vFz5Z0//6BnH1vZ2Tzl5M7N1pdoQY9Jrz2ZSSzMfdSTCuZEdj07lT6vgjlSoWcnSwVdmoUKZmvzeNbedP+ZM5c/+tefvfCJH/nYx/63s36bhN9mr371d5zYmE7/uU03/qllHXvBxnrbOC+MfZCaiq4HYVSRwoAUBociyNapWe9dq2YcN0Vv1uu1cZF674ZhFJbmeWkxbjroK2cuPOL0S8of/va7veUbbrJ5MwY0JBWuOpgPtMaArmsGNOt1aUMT4aqOXsw1iWxCSNdU0ZCBGWsULvOBX+aX3vagT31yV5tudHTzlDHSvCL6YBzpSlnJ1vRe5j5oY+iY0c0qqAwhVdGVnmFOV1XQ22zOWeXa3Pbs1/Or5y8++MNPn//Q3/3gx/7Kx/w2C79DXnP7H3/RZjv1F464+Xu36sSRxXpLzqMw6AaqiWgyB3RiUtVl6yKCSmGBQRhkH0QEMYloQhPRhE6WiFBZ9tcrZy895Y67XuiPfueX+7I3sTiNwVXzSOlIgbmXJrTsqkqvSYsBzW/oxKwcGvVOy4nq9GQeuMCn7uVnf/ysj7//aQcXmptO3GLQ1HrWcqGmkrmgQg8iqEBMZHdo6iFzFEkP5ppVFTGoZE6i0Yt172qYWV502eMuTw//i4ee/rW/ec/H/sY7/A4Jv8Pe+EXf/6bNOvnfbc6nvnrsR8ahbwgLaql6cyijZJtl63pfi0hqISyoURhFhENZKSJEhMhZWIuciSYMIo86WK+cvfys3Lzo93/lrb7pP3yD3/d6bDMPGOidKsbmqnBo8usqqaQKHZ0MNRHDQMeMFWc+zb/66Sf94k/fb//5kzbzFqeOnjIGly5esBzT5nLT/v6+Ng66pEYCQeRa5dqhjKU+p+qhJ7JUBEFvrGpWrROTue2Z2kUX1p/5xJPnP/wDJz/0rv/7J/3k7HdQ+N0Rb7r9z//xzTj5Fzb60deMfUfGNjWKuQlkdtlKzR0pbAiDMogIdBFN1oZDkfuiraTJodBENKrZ2N6xmtYuXj5rVRcdP9W8+Q+81h96621O38mMNiJYT7Oq2WKx0HuXmfRC+HXlN3QUVhw8y6+9k5/5f9/nsQcvObnzYpvtmJwWsm/pE2Y2loNxmOyt9gzjqEdSjQx0FSWjXFWj0BwqzMmEwhSs21rbXInxvPMHj1568tyH/9enzt//d+556G8/63dB+F30xhf9uc1hc/nnl3XiP1/miRtaHdHmJT1lEUW2EBXUQhiI5lBkUSlsiCiZ+8Ra6g6FJqLJHMxTt+5lY2NDG9PzZ582u+zGW5e+/o/f7Q1f9QKnX4pAQ0O4JlxTKAQKE31FJg746Dv4J//4PR74yFk3bN3m6PYp095sOTTTambesDFsy1iY1itl37hsDvVANAQxinJVRui9iwiRaQqmoidTo4ZJbV5ybu9RZy4++EPnDu7/wXd/4q98xO+i8HvA3Xd8zyvG+ea/vHDq25Z1cjnWEW0e6WFQDmWE0FSk0FSE1ESUFCJ9TncoogkDM8vFpsgyTSsxhGEY7O+vXLh0ztRW7nrj7b7pW1/trjcS29hAQ7HuZVwGMenVrVdhbKMsrHn0V3n7Tz3o/e/+lHn/qJ3xJmNuGhvVJ6uDyzY3tg02VB9kjqZOVcgk24xOjNQoanAokYjGVGtdmVuoYTQNZd12rYYzzuzf+yvPnv/kX//XH/0vft7vAeH3kNe9/Pu/djNP/9fbceObl/2YsTZlD1EpioggEimMRJdKRIgYqSBKRAgDlZpmtVoZxtRamKaV1pY2lkeowXouZy8+ri+f8bo3vNhXfe2XuO0VRx25gaM3Y3BNR6Fz5mk+es9593/4CR9556fsP7+02W6xOZ7SV81iGIxjt3f5nCNHth062C+rqYzjpmFcmDt9XhtaoiOJQdRSFM01bWBdaz1ntTHry7WL/azn9z77xHMHj/xPv/Ch7/l7KL9HhN9z/vt80yuf+TNbbvmLy/nkS8Z+zNA3RDURIYIKQjrUeooIEaOQeqSIEBEiQkSY59mYTWuNHkgqrddry41RtG6Kyy5cet7BdNnpW0558UtfYnNn086Rba2V1O3u7jr73GXPP3PJ+TMre5dmNxw9RR9sDEc0Gw5216LKxsbC/98evLzYfdZxHH9/vt/n9zvnzGRy68U2FRFbjcRWJKIR1J0LcSEu6kJFaKkEqiJeEJWq7aKFUpG2eEPEIm5cKIqKILhRUWwRxNo2Mjat17SpCbnNJCdnzu95PnqideUfkMnM61U6MZ2eJ6IQOSHLmAYMrlgDXSnkvCcMaI7DKAwO0mPkDkm0AHfrTMs/OatnOLHx9BdfuHj0wd88/uAxLjPiMnXopg+8tPe1d+0s+94XdWkl64h0IUjkQCoshEESosOR4EQSkpGEaYQSNQFBqhAq2AY1oKEMIgJL1Gqm0ymz2QxC0Cq1VkpA3y3R5QTRMy47GY/HmBkR4BqIjlE3gtqowwwlRASNAuoxQQWigKPieWPkJcKBYqDFBlJDErhDSixo/ZRZPM/JjdWf/G3t9/f+/I/3PcplSlzmDr76ztePvftTy+y9dcIedXUHWSdooweb6AZQhdbh6IgIkEAN24QKIMIdECRCEgJMYAVEIjcUkIiQWZBMIhakBCdWByS4AA25Igm5IDoCIZlgQGEWGgXoiTKiEVQ3mhpFQalBECBjm4ggirAG5nEOT85ycrr6xPHzv7/np0/e+30uc2KTOLT/o7eO2fOZ5Xr1wVFbofMKqY5aKwYkISVSIokXBUJKsJCShSQRSVNgEknIIJkUBCJoSGJBSmSBkkYgJUbQRMrIICWSkMSCJBYyO1oFIhFBdWIbSXSZuDZKKYQKDTOwwRAXqHmWi3n87LEzj99/th7/yq9XH1hjExCbyOv3HV4aj3d9ZJIrH5/kyjWFPTC7inCPcgN5gCaCoNAjCcmgBhhHIDpMIjqsQAYpkUESkgiDFMggJQtJ0gApsQALOejoQQ00g6g4EtFDG2MSSQhIjCRkEJBAZmIHQ4OKaKMBj9c5r2P8c/rUN8+sP3nfL1e//Gc2EbEJHbzxjpuWyvLHOvbescSNo1J3EqqoGQ1BtKSLEakADUDDMg6BAlOwChAUzIIcSEIkUoKTcCAJCCSxIIkXyUFhhGiQA00DKJE6mifgxBaJKSkKIDfkSkFYYk6DEbTc4DynOD3/849PzJ5+4OdHPvsrNiGxib1u//vevKKX3TPi2reNvJfOK8TQk0NSEIEIgySaGi0N2TDQIpCDggkJHEgJBKKAC1KCBQSSSJkFif8JAlyQCiaQhMNAgIOkQxIhE21OyIRBrVBzgEllygnOtr/86dT86D0//cPd32ETE5ufDr3yw7ct5XWfHnPNq0beSww9OQTZCkEgCQNOIOZYxiEWOgUy/yZEAgVRMAUpwUISMkgixX81FqREFHAHBJKQjDALoQ4ILtFAZCXCBI1ZrLEeJy6cvPjs/Wc2Hn/o16uPrLHJiSvELbe8d8/KcM2Hxu36T4x87e5u2EVpSxQLWSxIQhKWIefI0FGAwoIImgLRYQVYSEJKZJBEyiwEwgSOxEC6ETLhIBBycEkkRlgdLSt0c4ZcY1qPsc5z33r+3BNfeOzo149whRBXmEM33X5gVF567xL73jVit5h3hAvFhXCHLCSBTCKCAAcWSAICS0BggZRIIhCSCAtJyGACq0MSoQ3SJhAyJIVG0DAuUNPUboOLeYbz9fijpy4c/fwv/nj3z7jCiCvUG15zx9tH7SV3TXT9W/q6m75NyNYTcxEudJ4QUWgagMaCBRHgEJFiwY1LkkQSQQJBOGiIUI8kUkJu4IEFkxCiRdL6GbPuNOfac8+fuvjs3cdmJ7999OiXZlyBxBXtnnjjgdMfHNerPj1h7w3jtsKoLVOGCTGMsUV0gdWQBDSQaWpAwzal9EgiHIggSKQEgiQJF2zRWkMyhFEHLUzLgdrNWRtemJ7aePZr6/rHA489+fALXMHEFnDzze95yY7h6k/u8L7Dy75+ZVR3UGpPq4LsQYEMCpCEZKCxkCT/EWAhJVKCg0JS6FAzTUBCLUHtBmass1FOcnbjrz84Xf/xud8eefAptgCxhbzplYcPTXzDxyZx1bvGLI+SZVzH4GQhHEgiIwgVQiKa+I+gCUQCgSTCkNVIgs64h3lU1n2ac+35x9bbcw+d8VPfP3LkuxtsEWILetP+O985ievu6nXNG3vvItoIuaAWhBO5UFzAhVRhQRIWSEISViNUCQ0QlZaNmda54FMnztXn7j9e//KN1dVH1thixBZ1yy3v3dNvXHd4V153e/Hy/k5jeo0JT4ihEEMPLQj1LEiCMArjAGugxRzKBSpTpsP509N6+pG1+d8f/u0zX/07W5TY4l574/uv3RG731Fy+daxlt860q6d2SaUukS0EV2OuSSMo9E0pzKnaaDGjDWffHTmM9+74HM//N1TXz3KFie2XfLyl9823lP0ilEsvaHXzoO9lg6kRzeEy04gqlojhovV82PDcPFPg+vj8zJ7dNpffOaJJ752mm2XiG3/14ED797R9/NS65L4r8wLnk5bXV390Rrbtm3btm3btq3sX5RMSvn7XNJIAAAAAElFTkSuQmCC;fontStyle=1" parent="KliGwBsKS5aDSYIdk3Gj-6" vertex="1">
          <mxGeometry x="379" y="51" width="78" height="78" as="geometry" />
        </mxCell>
        <mxCell id="KliGwBsKS5aDSYIdk3Gj-10" style="edgeStyle=orthogonalEdgeStyle;rounded=0;orthogonalLoop=1;jettySize=auto;html=1;" parent="KliGwBsKS5aDSYIdk3Gj-6" source="KliGwBsKS5aDSYIdk3Gj-2" target="KliGwBsKS5aDSYIdk3Gj-5" edge="1">
          <mxGeometry relative="1" as="geometry" />
        </mxCell>
        <mxCell id="KliGwBsKS5aDSYIdk3Gj-13" value="&lt;b&gt;&lt;font style=&quot;font-size: 12px;&quot;&gt;&amp;lt;iframe&amp;gt;&lt;/font&gt;&lt;/b&gt;" style="edgeLabel;html=1;align=center;verticalAlign=middle;resizable=0;points=[];" parent="KliGwBsKS5aDSYIdk3Gj-10" vertex="1" connectable="0">
          <mxGeometry x="-0.0899" relative="1" as="geometry">
            <mxPoint as="offset" />
          </mxGeometry>
        </mxCell>
        <mxCell id="gm67zMA869F3ZMpq1-CG-2" value="&lt;b&gt;Amazon CloudWatch&lt;/b&gt;" style="sketch=0;points=[[0,0,0],[0.25,0,0],[0.5,0,0],[0.75,0,0],[1,0,0],[0,1,0],[0.25,1,0],[0.5,1,0],[0.75,1,0],[1,1,0],[0,0.25,0],[0,0.5,0],[0,0.75,0],[1,0.25,0],[1,0.5,0],[1,0.75,0]];points=[[0,0,0],[0.25,0,0],[0.5,0,0],[0.75,0,0],[1,0,0],[0,1,0],[0.25,1,0],[0.5,1,0],[0.75,1,0],[1,1,0],[0,0.25,0],[0,0.5,0],[0,0.75,0],[1,0.25,0],[1,0.5,0],[1,0.75,0]];outlineConnect=0;fontColor=#232F3E;fillColor=#E7157B;strokeColor=#ffffff;dashed=0;verticalLabelPosition=bottom;verticalAlign=top;align=center;html=1;fontSize=12;fontStyle=0;aspect=fixed;shape=mxgraph.aws4.resourceIcon;resIcon=mxgraph.aws4.cloudwatch_2;" vertex="1" parent="KliGwBsKS5aDSYIdk3Gj-6">
          <mxGeometry x="640" y="190" width="75" height="75" as="geometry" />
        </mxCell>
        <mxCell id="gm67zMA869F3ZMpq1-CG-13" value="AWS Secrets Manager" style="shape=image;verticalLabelPosition=bottom;labelBackgroundColor=default;verticalAlign=top;aspect=fixed;imageAspect=0;image=data:image/png,iVBORw0KGgoAAAANSUhEUgAAAFAAAABQCAIAAAABc2X6AAAAAXNSR0IArs4c6QAAAERlWElmTU0AKgAAAAgAAYdpAAQAAAABAAAAGgAAAAAAA6ABAAMAAAABAAEAAKACAAQAAAABAAAAUKADAAQAAAABAAAAUAAAAAAx4ExPAAAKWUlEQVR4Ae1aC3BU1RnevdndZJ+RZEOyMYEQQpVXeIQArQRkECjy0HZqsaN0OsUagbZAiw/CtNgpoKJTYGSI0OJjxtbBOuNowFqRR+UhEkWxWCgQQAjZJGRDk+w7u3v73Ry82bl79+45dxfI4O7s7J7z3//13f/cc///nKNtGDdH8236cN8msALWNOBbPeLpCKcjfIvdgfSQvsUCGgMnHeGYW3KLEdIRjhNQY2V5Rr/sOBeZyaX1dfgyi6VCgCrCQFuw8WlH7doUYk6F82p0ZCwt/E5COd7vN02eYBg80PS9Cs+eQ7w/kFBEysBxhtIBmUPLsirKzVMmGseOEBg4Tl9cqMu5TWswhDu6NDwvlboOfS1leZiRk+2oXQengw1fOxetCl/toHFGX+Qw3TUuq3KUsWIEZzEriETcHt9nJ/z1x72HPu1udCpwipe0mQY+EBS7lA1awFDHgFmrxViwzZ9jmjhWo9USV7ovOUONzlBLW6jlSr/qh0C8uvWvuvw8Xb5dV+TQFzuueczz3iPHOnfs9B7+TCHmnM3q2LLG+9EnV7f97Zog3R8DYCikwWyqGp+7fCHGKvh5n9+z/2PfJ1/4jh4PXXGJLpEZ61zlXJGiy8s1jh9lnDDafPd3tcYs0LsvXnZtfNl74KjIIzYI2sw7SsFzecHyiNcnXkrYYAMMdQqYEavcFdXmuyeCLdTU0vH3XV3vfBDp8sQ6EQtY5OGsZut9M7IfmK0rzAfRs/+I64WtGBe9DD2xJWibqmvCbe3iJZoGM2AojYe5cNszWWNG4Glsr329861dmkgSkxDH2X50b87iBZzZ5P/8RNOjKwmY6NiqQCs4TzNLS+4c7wt49h7CbCSZt/3HT3EWU8vj6zD3aJIAK5jj+cBXp7t27sWLsH3TKxHM4ZjUk4stQaEmwkQyXpzJ1ZT/pgQtvKJKPGS9D7d3OBfVBM9dRJyvd06SKrRJAYbwDcNc8EKN6llKEi31Q1pURD+2kWlZ5003VozUFeQhrQq3tvk+/bJr5x48rqI22UZW+dDcFb9o/s0a1jk5VptKwDpHf/tTi9vWbg61Ci+MhJgzsq32lUvM0+6K9QAUz77DUCVklwofJDA9uaeuv92+6pdtz24JOVsV2ONdUjNLQ1f/P/4WszRnNpLEIN68Taxm5OUUbn8+a/QwPhzufHMXEqz2TS93vP627+gXkc6uzDsHYxaw3DMJWTpNCpG7bKFlepW+qND9z3/FQ6VAVwMYyVC/Rx5ERtHyxFpAJdqjMQdPnw+evXDNKscV1q4BpODpc84lv3O/ty/U2IwMDF80fB8f8+w+aBwzTF9SnDV2RNc7uxXSSaIQ4992/0zDkJLgmQvdFxqvWaH+YwfMaR0bV3NWi2vDX/zHTkQbIpiB1v3+fpFuvW+67Yezwu3/c1bXhC43i3SxgXes90C9ZeZk/cDbQ62u4KkG8ZJsA3cKuY1pUmXm8CGdb+5kfeEzv5bMkycg6eu+1NT59vuxDmHejkYLBuvsafh1/enP5GmPFQEFabZrw3aBeY7AnPAD03BAf3uBuWp8QmYJAzNg24+FjB/VDGXmaCgbCH6h9FH8oELCdcPgAYpc31yM8EJsNRrb/HnfkGj/2QDrBxVj9QNTS1fdh5QWSBksW0JEa4h0utFVrpmj+bvq9sANOKMvKYqmJ2yzATZPqoRGz4cHaabThLaTYYh4vHADGvAwM+lhA2ysHAXtviOfM9m4Tswos6EZVTSTfgbAWr0ua8xwvDaQHjHZuE7MPqEm442jh8MxehMMgA1lg7RZmagWKBe06J1Qxwk34AyWRwxlJfQaGO4NEmDoxdIUjfaCjauRiomc9KvQhBNLec3L/iCKx2t0NzYjpcHCWODk2Xg8EjpDhLGCA2EswUlUyHaj0coyKBMpxUPNQjqtKxAco/ywRJgAbqYCTMxHL9NROgQ2+uEQ7lnrQoTplVNVS7IeKIMhIso88bykkVXhEjHHEOF4/rHROS77J/Ms0yZByr3nYMcb72oiETYNyXFTASaByl368+yHf+DqqexUG7WveNT2wGwinjnyDuTDbetfIl3ZoMUzRFyCP/AKlSa8iscpoTNMWihlIEymLokWyi5ns2DxFUl4a816fNFAF0RK8Vg28vQSx2KvylKoIkwkSbmTDGC9oz92XkLOFvfuA9CZ86ufYeUExEBPIi0+8PSh1uXnQo9CHRaLmQVwz5SIQRirhZISvNiEUhbVZd7qZRABWnRBpBSPZcNmHYjR+xKxPBIKw5BGZc8Hg8i3VA9C1O5tz2/FSEbdK5S+ER5dECU+UXaxdmsYXAKX4BilCNgYIgzV2FtARWasKMeyG72NaE4s8cC/ojdeBLHxoV/3rgSxvH6JQuO4kRpO6z9+Eo5Fm1BuM0QYioR8nb1AkXggghQbEgbKrnH8aHBiX5KSn7CxAfYerIeYZUYVNqOZzNAwY9IiXxpmlDFYuwQnsm4afpGHDXDwzHn/lyfx8FhmTRVVqGjQA4un3DprKqYSjGe4FI9Hls4GGCqE1SyNJnv+HFl1N4yI4wU9ztSxWmSYtIhqz97D4SvtKEERZPc/9inbo3+jKuuRXLXcOxVVIdY64YzkUsIuc4T5UMi1+VXoxQ6AwvuJ9dGSOBotzpmEExDiB0Zzly5Et/3F17CVIdIpG8wRhl68Wqxz7zGOK8957GExE5bYoynfJSKy3ZwlP8WJKezLYsWbMOQsWoCtLCwzJRxfsgqZI0y0tD1XGzjx346exWFZvSkhIrbC+bDSATgxJZ6J69hRh90WbKapM0FVDyurxqSdv+4J16bt2OxR5lRxtXdf8txF52M1yS+nqYyw6DrZm8dxI/uTi0ViChu9e+6I80u9cVZtIinABC3Zm2956lnVTigLphazesDRaNWdIFLGGX01hZhVApZFi3Xc3OWP0O8PRUOSbUMVFJIKPFWY2feH45+Xyl+/yvL9Kda508LY5m34WhYDPRE7xgUbfo/ZwTBkkHvXXgj27rmXDlB9rpd5lpaNLYFhGFRsX7kYh/HQDZxq6NxR5/7gIz7YHQuSZGDiEkc0g9agt8yYbHtwHqYG0HEMr+2ZLcHzl0Se3nmb5VyvKM4GGC9Gx7bnlE8QobLH2k1Gzm2wgbcITmJg18t/7N8Rb2+hHwuYMxlx5AHxtMycQl65YdfV9s2v4YyP6KvYSAYzG2CYtD9ebZw4RnmWwu6WeXpV9vy5mcOGEC+RAwZPnsVB6FCzcHzY/uQi0JG9CMeHC+xYqTEMLdNmZBDmwH/OILvw7D7Ad4cIJfZXNWZmwLCNbJbsX8f6IaEAME4TY5MV5zG0OqU0Fil64KszWGDAsSAAluiR7arDrAawrHllIp4Fw51lQjxxHDzfLizWotJ8672e8+JCzIOnzkaPeWVt4lUVmG8QYNFF0oh9hiUM9F2CGQ9F87KnffWJN66Vhhm91ZvISd7PKI9p0MLPmxPhm3iDVGZaN9HjJE2nASd5A/u8eDrCfT5ESTqYjnCSN7DPi6cj3OdDlKSD6QgneQP7vPj/AaOo8pM9qkbxAAAAAElFTkSuQmCC;fontStyle=1" vertex="1" parent="KliGwBsKS5aDSYIdk3Gj-6">
          <mxGeometry x="54" y="190" width="75" height="75" as="geometry" />
        </mxCell>
        <mxCell id="KliGwBsKS5aDSYIdk3Gj-11" style="edgeStyle=orthogonalEdgeStyle;rounded=0;orthogonalLoop=1;jettySize=auto;html=1;exitX=0.5;exitY=1;exitDx=0;exitDy=0;" parent="1" edge="1">
          <mxGeometry relative="1" as="geometry">
            <mxPoint x="574" y="261" as="sourcePoint" />
            <mxPoint x="574" y="261" as="targetPoint" />
          </mxGeometry>
        </mxCell>
        <mxCell id="KliGwBsKS5aDSYIdk3Gj-16" style="edgeStyle=orthogonalEdgeStyle;rounded=0;orthogonalLoop=1;jettySize=auto;html=1;" parent="1" source="KliGwBsKS5aDSYIdk3Gj-14" target="KliGwBsKS5aDSYIdk3Gj-2" edge="1">
          <mxGeometry relative="1" as="geometry" />
        </mxCell>
        <mxCell id="KliGwBsKS5aDSYIdk3Gj-14" value="&lt;b&gt;Unauthenticated&lt;br&gt;Users&lt;/b&gt;" style="sketch=0;outlineConnect=0;fontColor=#232F3E;gradientColor=none;fillColor=#232F3D;strokeColor=none;dashed=0;verticalLabelPosition=bottom;verticalAlign=top;align=center;html=1;fontSize=12;fontStyle=0;aspect=fixed;pointerEvents=1;shape=mxgraph.aws4.users;" parent="1" vertex="1">
          <mxGeometry x="40" y="61" width="78" height="78" as="geometry" />
        </mxCell>
      </root>
    </mxGraphModel>
  </diagram>
</mxfile>
